<svg xmlns="http://www.w3.org/2000/svg" width="32" height="32"><path fill="#4D4D4D" fill-rule="evenodd" d="M22.77 16l2.51 1.48c.95.56.95 1.47 0 2.04l-8.42 4.97c-.47.28-1.25.28-1.72 0l-8.42-4.97c-.95-.56-.95-1.47 0-2.04L9.23 16l-2.51-1.48c-.95-.56-.95-1.47 0-2.04l8.42-4.97a1.88 1.88 0 0 1 1.72 0l8.42 4.97c.95.56.95 1.47 0 2.04L22.77 16zm-1.72 1.02l2.17 1.28c.18.1.19.3 0 .4L16 22.97 8.78 18.7c-.18-.1-.19-.3 0-.4l2.17-1.28 4.19 2.47c.47.28 1.25.28 1.72 0l4.19-2.47zM8.78 13.3c-.19.1-.18.3 0 .4L16 17.97l7.22-4.27c.19-.1.18-.3 0-.4L16 9.03 8.78 13.3z"/></svg>