<svg xmlns="http://www.w3.org/2000/svg" width="26" height="26"><g fill="none" fill-rule="evenodd"><path d="M0 0h26v26H0z"/><path fill="#4D4D4D" d="M10.02 12.33l.13.15v.01a1 1 0 0 1-.1 1.23l-.03.02-3.53 3.54a1 1 0 0 1-1.42 0 1 1 0 0 1 0-1.42l.71-.7.35-.36 1.98-.99-1.55.22H2a1 1 0 1 1 0-2h4.56l1.55.23-1.98-1-1.06-1.05a1 1 0 0 1 0-1.42 1 1 0 0 1 1.42 0l3.53 3.53zm8.02 1.49l1.56.22h4.55a1 1 0 1 0 0-2H19.6l-1.56.22 1.98-.99.35-.35.7-.7a1 1 0 1 0-1.4-1.42l-3.53 3.53-.02.01a1 1 0 0 0-.07 1.3v.01l.08.1 3.54 3.53a1 1 0 1 0 1.41-1.42l-1.06-1.05-1.98-1z"/></g></svg>