<svg xmlns="http://www.w3.org/2000/svg" width="32" height="32"><g fill="#333" fill-rule="evenodd"><path d="M20 11.75V13a1 1 0 1 1-2 0V8a1 1 0 0 1 2 0v1.5l-1 3 1-.75z"/><path d="M22.5 12H24a1 1 0 1 1 0 2h-5a1 1 0 1 1 0-2h1.25l-.75 1 3-1zM12 20.25V19a1 1 0 1 1 2 0v5a1 1 0 0 1-2 0v-1.5l1-3-1 .75z"/><path d="M9.5 20H8a1 1 0 1 1 0-2h5a1 1 0 1 1 0 2h-1.25l.75-1-3 1z"/><path d="M10.34 20.24l-3.22 3.22a1 1 0 1 0 1.42 1.42l3.22-3.22L13 20h.41l.3-.3a1 1 0 0 0-1.42-1.4l-.29.29V19l-1.66 1.24zM21.66 11.76l3.22-3.22a1 1 0 1 0-1.42-1.42l-3.22 3.22L19 12h-.41l-.3.3a1 1 0 1 0 1.42 1.4l.29-.29V13l1.66-1.24z"/></g></svg>