<svg xmlns="http://www.w3.org/2000/svg" viewBox=".01 -1.02 45.99 20.02"><path d="M12.63 5.78c-.61 0-1.53.23-2.13.5-.17.07-.26.15-.15.4l.43.87c.03.1.1.13.15.13l.18-.06c.61-.4 1.04-.6 1.4-.6.46 0 .76.3.94.75.2.44.26 1.05.26 1.73v.2a3.43 3.43 0 0 0-1.38-.36c-1.75 0-2.7 1.68-2.7 3.47 0 1.96 1.12 3.36 2.44 3.36.75 0 1.42-.43 1.87-.97l.25.6c.04.11.1.13.2.13h.71c.06 0 .13-.04.13-.15V10.2c0-1.38-.1-2.43-.45-3.13a2.29 2.29 0 0 0-2.15-1.29zm1.08 8.59c-.37.36-.77.53-1.15.53-1.06 0-1.3-1.3-1.3-2.19 0-1.05.4-2.13 1.2-2.13.4 0 .86.1 1.25.43v3.36zm6.82-8.46c-.97 0-1.96.72-1.96.72v-.47c0-.08-.07-.15-.13-.15h-1.25a.15.15 0 0 0-.14.15v9.62c0 .1.02.15.14.15h1.25c.06 0 .13-.06.13-.15V7.53s.57-.35 1.29-.35c.65 0 1.17.33 1.17 1v7.6c0 .1.07.15.17.15h1.2c.14 0 .15-.06.15-.15V7.75c0-1.2-.73-1.84-2.02-1.84zm9.5-4.83H28.8c-.1 0-.14.07-.14.14v4.86c-.5-.2-.93-.3-1.25-.3-2.02 0-3.36 1.9-3.36 5.58 0 3.14 1.3 4.83 3.06 4.83a2.7 2.7 0 0 0 1.75-.8l.27.44c.05.09.07.1.17.1h.75c.08 0 .12-.06.12-.15V1.22c0-.1-.04-.14-.12-.14zm-1.39 13.5c-.32.17-.7.32-1.1.32-1.33 0-1.88-1.57-1.88-3.86 0-2.02.57-4.01 1.8-4.01.38 0 .78.15 1.18.42v7.13zm6.08-8.8c-2.12 0-3.08 2.71-3.08 5.63 0 2.98 1.33 4.76 3.32 4.76.95 0 1.8-.37 2.26-.68.06-.04.08-.06.06-.15l-.15-.68c-.02-.08-.05-.13-.14-.13-.1 0-.68.24-1.48.24-1.52 0-2.22-1.34-2.22-3.09v-.47s.76.1 1.2.1h2.9v-.82c0-3.09-1.1-4.71-2.67-4.71zm-.23 4.29c-.44 0-1.16.1-1.16.1s0-.3.04-.63c.22-1.69.58-2.53 1.3-2.53.62 0 1.02.87 1.11 2.39.02.32.02.67.02.67h-1.3zm9.36-4.06h-1.07c-.13 0-.21.07-.24.17-.05.15-.53 1.4-.7 1.89l-.52 1.4h-.04l-.42-1.12a63.9 63.9 0 0 0-.79-2.12c-.03-.1-.12-.22-.25-.22h-1.2c-.14 0-.2.15-.15.24l1.92 4.44-2.07 4.97c-.07.14.02.27.15.27h1.03c.2 0 .25-.08.32-.25l.7-1.9.52-1.67h.04l.5 1.42.83 2.2c.04.12.12.2.26.2h1.16c.12 0 .19-.13.12-.25-.15-.28-1.24-3.04-2.04-4.82L44 6.25c.02-.11.02-.24-.15-.24z"/><path fill="red" d="M10.95-.26h-1.3c-.14 0-.2.05-.24.18l-2.39 6.7c-.28.75-.6 2.04-.6 2.04h-.08s-.52-1.52-.65-2.01C5.5 6.1 3.81 1.46 3.77 1.3c-.02-.11-.09-.24-.26-.24H2.2c-.2 0-.22.17-.15.3.25.67 2.57 6.58 3.5 8.95v5.43c0 .1.05.15.16.15h1.24c.06 0 .13-.06.13-.15v-5.39c.82-2.3 4-10.32 4.03-10.39.05-.12.02-.22-.15-.22z"/></svg>