<svg xmlns="http://www.w3.org/2000/svg" width="256" height="256"><g fill="none" stroke="#fff" stroke-width="4" stroke-linejoin="round"><path d="M127.83 125.52l-16.8-16.3h-5.75L89.82 93.76s-4.7-24.46.96-29.8c5.64-5.33 14.4-1.91 18.64-3.16 0 0 14.67-14 17.33-17.33l.5-4.8L99.8 11.23l-5.28-.07-17.37 17.38c-1.12 3.1 2.6 13.48-2.3 18.27-4.89 4.8-7.96-1.47-16.54 1.44-33.57 17.34-70.46 74.2-45.18 118.2 2.73 4.77 5.21 4.18 5.14.39-.7-34.22 13.05-67.04 53.32-54.85 11 11.1 15.46 15.46 15.46 15.46l.28 5.45 15.7 17.43m25.27 28.07l61.76 68.6 6.44-.03 24.68-24.68-.09-6.31-66.18-64.2"/><path d="M36.05 217.3L158.6 94.76c-8.48-36.9 27.86-78.45 68.93-52.73L197.6 63.47c-3.73 15.2 11.72 34.66 21.45 34.9l29.41-20.93c12.22 27.67-23.06 67.68-67.68 48.49L62.73 243.98c-14.49 14.48-41.3-12.07-26.68-26.68z"/></g></svg>