<svg xmlns="http://www.w3.org/2000/svg" width="32" height="32"><path fill="#4C4C4C" fill-rule="evenodd" d="M16.22 23.12l-3.22.4v-1.95h2.12-3.62c-1.38 0-2.5-1.1-2.5-2.43a2.47 2.47 0 0 1 2.5-2.44h7c2.49 0 4.5-1.96 4.5-4.38a4.45 4.45 0 0 0-4.5-4.37h-6.65A3.49 3.49 0 0 0 8.5 5.5 3.45 3.45 0 0 0 5 8.91a3.46 3.46 0 0 0 3.5 3.42 3.49 3.49 0 0 0 3.36-2.43h6.64c1.38 0 2.5 1.1 2.5 2.42a2.47 2.47 0 0 1-2.5 2.44h-7A4.44 4.44 0 0 0 7 19.14a4.45 4.45 0 0 0 4.5 4.37h1.75H13v-1.94l3.28.38-2.26-1.83a1 1 0 0 1 .19-1.19.96.96 0 0 1 1.38.04l2.63 2.8a1 1 0 0 1 .28.66 1 1 0 0 1-.26.78l-1.3 1.43-1.36 1.47a.95.95 0 0 1-1.37.04 1.1 1.1 0 0 1-.12-1.43l2.13-1.6zm7.28 2.83c1.93 0 3.5-1.53 3.5-3.4a3.45 3.45 0 0 0-3.5-3.41 3.45 3.45 0 0 0-3.5 3.4c0 1.88 1.57 3.4 3.5 3.4zm0-1.7c.97 0 1.75-.77 1.75-1.7 0-.95-.78-1.71-1.75-1.71s-1.75.76-1.75 1.7.78 1.7 1.75 1.7zm-15-13.64c.97 0 1.75-.76 1.75-1.7s-.78-1.7-1.75-1.7-1.75.76-1.75 1.7.78 1.7 1.75 1.7z"/></svg>