<svg xmlns="http://www.w3.org/2000/svg" xmlns:xlink="http://www.w3.org/1999/xlink" viewBox="0 0 39 44"><defs><style>.cls-1{fill:url(#linear-gradient);}.cls-2{fill:url(#linear-gradient-2);}</style><linearGradient id="linear-gradient" x1="15.1" y1="4.41" x2="23.9" y2="4.41" gradientUnits="userSpaceOnUse"><stop offset="0" stop-color="#df462b"/><stop offset="0.11" stop-color="#df5929"/><stop offset="0.38" stop-color="#df8124"/><stop offset="0.52" stop-color="#df9022"/><stop offset="0.59" stop-color="#d69124"/><stop offset="0.71" stop-color="#bc942b"/><stop offset="0.86" stop-color="#939935"/><stop offset="1" stop-color="#659e41"/></linearGradient><linearGradient id="linear-gradient-2" x1="0" y1="23.89" x2="39" y2="23.89" xlink:href="#linear-gradient"/></defs><title>banner_2</title><g id="Layer_2" data-name="Layer 2"><g id="Layer_1-2" data-name="Layer 1"><path class="cls-1" d="M19.5,8.82a4.41,4.41,0,1,0-4.4-4.41A4.41,4.41,0,0,0,19.5,8.82Zm0-7.56a3.15,3.15,0,1,1-3.15,3.15A3.15,3.15,0,0,1,19.5,1.26Z"/><path class="cls-2" d="M36.48,10.71h-5L35.8,8.56a2.52,2.52,0,0,0,1.12-3.38h0a2.51,2.51,0,0,0-3.38-1.12L20.32,10.71H18.75L5.54,4.05a2.52,2.52,0,0,0-2.26,4.5l4.28,2.16h-5a2.52,2.52,0,0,0,0,5H13.84v5.38l-9.68,15a2.52,2.52,0,0,0,.79,3.48H5l.53.33a2.51,2.51,0,0,0,3.47-.79l4.89-7.8V41.48A2.52,2.52,0,0,0,16.35,44h1.26a2.51,2.51,0,0,0,1.89-.86,2.51,2.51,0,0,0,1.89.86h1.26a2.52,2.52,0,0,0,2.52-2.52V31.4L30,39.17a2.5,2.5,0,0,0,3.47.79l.53-.33a2.52,2.52,0,0,0,.79-3.48h0l-9.67-15V15.75H36.48a2.52,2.52,0,0,0,0-5ZM34.11,5.17a1.26,1.26,0,0,1,1.69.56h0a1.22,1.22,0,0,1,.13.56,1.26,1.26,0,0,1-.7,1.13l-6.5,3.28h-5.6ZM3.83,7.42A1.26,1.26,0,0,1,5,5.17H5l11,5.54h-5.6Zm4.05,31.1a1.26,1.26,0,0,1-1.73.38l-.53-.33a1.26,1.26,0,0,1-.4-1.73l8.62-13.38v5.6Zm25.89-1.69a1.26,1.26,0,0,1-.39,1.74h0l-.54.34a1.26,1.26,0,0,1-1.73-.39l-6-9.46v-5.6Zm2.71-22.34H23.9v27a1.26,1.26,0,0,1-1.26,1.26H21.39a1.26,1.26,0,0,1-1.26-1.26v-17H18.87v17a1.26,1.26,0,0,1-1.26,1.26H16.35a1.26,1.26,0,0,1-1.26-1.26v-27H2.52a1.26,1.26,0,0,1,0-2.52h34a1.26,1.26,0,0,1,0,2.52Z"/></g></g></svg>