<svg xmlns="http://www.w3.org/2000/svg" xmlns:xlink="http://www.w3.org/1999/xlink" viewBox="0 0 34 38"><defs><style>.cls-1{fill:url(#linear-gradient);}.cls-2{fill:url(#linear-gradient-2);}</style><linearGradient id="linear-gradient" x1="12.52" y1="4.39" x2="21.48" y2="4.39" gradientUnits="userSpaceOnUse"><stop offset="0" stop-color="#df462b"/><stop offset="0.11" stop-color="#df5929"/><stop offset="0.38" stop-color="#df8124"/><stop offset="0.52" stop-color="#df9022"/><stop offset="0.59" stop-color="#d69124"/><stop offset="0.71" stop-color="#bc942b"/><stop offset="0.86" stop-color="#939935"/><stop offset="1" stop-color="#659e41"/></linearGradient><linearGradient id="linear-gradient-2" x1="0" y1="24.14" x2="34" y2="24.14" xlink:href="#linear-gradient"/></defs><title>banner_3</title><g id="Layer_2" data-name="Layer 2"><g id="Layer_1-2" data-name="Layer 1"><path class="cls-1" d="M17,8.77a4.44,4.44,0,0,0,4.48-4.39,4.48,4.48,0,0,0-9,0A4.44,4.44,0,0,0,17,8.77Zm0-7.26a2.9,2.9,0,0,1,2.93,2.87,2.93,2.93,0,0,1-5.87,0A2.9,2.9,0,0,1,17,1.51Z"/><path class="cls-2" d="M33.44,19.44a2.45,2.45,0,0,0-1.7-1,13.43,13.43,0,0,1-10.11-6.5,2.68,2.68,0,0,0-2.47-1.66h-4.4a2.51,2.51,0,0,0-2.39,1.59c-.08.23-2.7,5.52-10.11,6.58a2.45,2.45,0,0,0-1.7,1A2.4,2.4,0,0,0,0,21.33a2.63,2.63,0,0,0,3,2.19,19.49,19.49,0,0,0,9.11-3.71v9.87L4.57,31a3.53,3.53,0,0,0-2.86,3.71A3.49,3.49,0,0,0,5.11,38H28.35a3.5,3.5,0,0,0,.46-7l-6.95-1.21V19.89A19.82,19.82,0,0,0,31,23.6a2.68,2.68,0,0,0,3-2.19A2.49,2.49,0,0,0,33.44,19.44ZM31.2,22a17,17,0,0,1-9.57-4.39.85.85,0,0,0-.85-.15.73.73,0,0,0-.46.68V30.36a.74.74,0,0,0,.62.76l7.56,1.36a2,2,0,0,1-.23,4H17a.78.78,0,0,1-.77-.83.85.85,0,0,1,.85-.83H23a.76.76,0,1,0,0-1.51H10.13a.76.76,0,1,0,0,1.51h4.63a2.67,2.67,0,0,0-.15.83,3.16,3.16,0,0,0,.15.83H5.11a2,2,0,0,1-.23-4L13.06,31a.74.74,0,0,0,.62-.76V18.23a.66.66,0,0,0-.46-.68.47.47,0,0,0-.31-.08.84.84,0,0,0-.54.23A18,18,0,0,1,2.8,22.08a1.12,1.12,0,0,1-1.23-1,.89.89,0,0,1,.23-.83,1.39,1.39,0,0,1,.69-.45c8.18-1.13,11.11-7,11.27-7.41v-.08a1,1,0,0,1,1-.61h4.4a1.06,1.06,0,0,1,1,.76c.31.61,3.24,6.2,11.27,7.34a1.13,1.13,0,0,1,.69.45,1.5,1.5,0,0,1,.23.83A1,1,0,0,1,31.2,22Z"/></g></g></svg>