<svg xmlns="http://www.w3.org/2000/svg" xmlns:xlink="http://www.w3.org/1999/xlink" viewBox="0 0 38 38"><defs><style>.cls-1{fill:url(#linear-gradient);}</style><linearGradient id="linear-gradient" y1="19" x2="38" y2="19" gradientUnits="userSpaceOnUse"><stop offset="0" stop-color="#df462b"/><stop offset="0.11" stop-color="#df5929"/><stop offset="0.38" stop-color="#df8124"/><stop offset="0.52" stop-color="#df9022"/><stop offset="0.59" stop-color="#d69124"/><stop offset="0.71" stop-color="#bc942b"/><stop offset="0.86" stop-color="#939935"/><stop offset="1" stop-color="#659e41"/></linearGradient></defs><title>banner_1</title><g id="Layer_2" data-name="Layer 2"><g id="Layer_1-2" data-name="Layer 1"><path class="cls-1" d="M24.83,20.64a.75.75,0,0,0,.46,0C25.81,20.47,38,16.4,38,7.37A7.41,7.41,0,0,0,25.06,2.48,7.41,7.41,0,0,0,12.12,7.37C12.12,16.4,24.31,20.47,24.83,20.64ZM19.52,1.47a5.93,5.93,0,0,1,4.92,2.62.74.74,0,0,0,.61.33.78.78,0,0,0,.61-.33A5.93,5.93,0,0,1,36.52,7.37c0,7.33-9.82,11.19-11.46,11.79C23.42,18.56,13.6,14.7,13.6,7.37A5.92,5.92,0,0,1,19.52,1.47ZM33.1,28.71a3.15,3.15,0,0,0-3.86-1.94l-8.48,2a3.18,3.18,0,0,0-1.63-2.06l-.05,0c-2.11-1.08-7.23-3.6-9.22-3.6a21.57,21.57,0,0,0-3.9.58,26.31,26.31,0,0,1-5,.7.74.74,0,1,0,0,1.47,27.85,27.85,0,0,0,5.31-.73,20.83,20.83,0,0,1,3.6-.55c1.12,0,4.47,1.35,8.54,3.44l.05,0a1.74,1.74,0,0,1,.81,2.15c-.32.86-1.2,1.22-2.36,1-4.06-.93-5.84-1.51-5.85-1.52A.74.74,0,1,0,10.6,31c.07,0,1.85.61,6,1.55a4.74,4.74,0,0,0,1.07.13,3.09,3.09,0,0,0,3-2,3.27,3.27,0,0,0,.11-.39l8.79-2.12a1.67,1.67,0,0,1,2.13,1,1.94,1.94,0,0,1-1.24,2.36l-.25.12C21.4,35.88,20,36.53,16.6,36.53a25.35,25.35,0,0,1-5.11-1.14c-2.89-.81-6.17-1.74-8.79-1.74h-2a.74.74,0,1,0,0,1.47h2a35,35,0,0,1,8.39,1.68A25.08,25.08,0,0,0,16.6,38c3.79,0,5.39-.77,14.26-5l.25-.12A3.39,3.39,0,0,0,33.1,28.71Z"/></g></g></svg>