<svg xmlns="http://www.w3.org/2000/svg" xmlns:xlink="http://www.w3.org/1999/xlink" viewBox="0 0 31 43"><defs><style>.cls-1{fill:url(#linear-gradient);}.cls-2{fill:url(#linear-gradient-2);}</style><linearGradient id="linear-gradient" y1="26.29" x2="31" y2="26.29" gradientUnits="userSpaceOnUse"><stop offset="0" stop-color="#df462b"/><stop offset="0.11" stop-color="#df5929"/><stop offset="0.38" stop-color="#df8124"/><stop offset="0.52" stop-color="#df9022"/><stop offset="0.59" stop-color="#d69124"/><stop offset="0.71" stop-color="#bc942b"/><stop offset="0.86" stop-color="#939935"/><stop offset="1" stop-color="#659e41"/></linearGradient><linearGradient id="linear-gradient-2" x1="15.4" y1="4.64" x2="24.66" y2="4.64" xlink:href="#linear-gradient"/></defs><title>banner_4</title><g id="Layer_2" data-name="Layer 2"><g id="Layer_1-2" data-name="Layer 1"><path class="cls-1" d="M29.93,19.56l-4.6-1-2.18-3.09.06-.78a5.94,5.94,0,0,0-.51-3.25,3.47,3.47,0,0,0-2.51-1.81,6.24,6.24,0,0,0-2.4.08l-.23,0c-.86.14-1.73.3-2.57.45l-5.31,1a2.26,2.26,0,0,0-1.42,1l-.17.22L5,16.24a1.41,1.41,0,0,0,.2,2L6.9,19.64a1.41,1.41,0,0,0,2-.2l2.95-3.59,2.78-.37-.29,7.77A3.2,3.2,0,0,0,14.69,25L9.62,28.5l-8.06.61A1.68,1.68,0,0,0,0,30.86l.07,1.89a1.66,1.66,0,0,0,.54,1.18,1.67,1.67,0,0,0,1.08.45h.13L10.2,34,19,30.19l3.5,4.11,2,7.29A1.59,1.59,0,0,0,26,43h.17l2-.15a1.58,1.58,0,0,0,1.47-1.62v0L28,32l-5.54-6.65a.71.71,0,0,1-.15-.51L22.47,23l.15.19,6.28,1.32.23,0a1.35,1.35,0,0,0,1.36-1.07L31,21.16A1.35,1.35,0,0,0,29.93,19.56Zm-20,13.3-8.16.35a.53.53,0,0,1-.39-.14.55.55,0,0,1-.17-.37l-.07-1.89a.54.54,0,0,1,.5-.56L10,29.62l5.36-3.7,2.85,3.36Zm16.95-.32,1.63,8.75a.43.43,0,0,1-.4.4l-2,.15a.43.43,0,0,1-.46-.4v-.06l-2.08-7.64L19.6,29.1l-3.71-4.36a2.05,2.05,0,0,1-.45-1.43l.31-8,3.12-.42-.15-1.14-7.5,1L8,18.71a.25.25,0,0,1-.36,0L5.9,17.34a.24.24,0,0,1-.09-.17A.3.3,0,0,1,5.86,17L9,13.19l.2-.25c.28-.36.44-.56.72-.61l5.31-1,2.56-.45.24,0a5,5,0,0,1,2-.09c1,.21,2.32.84,2.11,3.85l-.07,1-.5,5.86-.37,3.26a1.84,1.84,0,0,0,.42,1.38Zm3-11.62-.48,2.31a.18.18,0,0,1-.09.12.19.19,0,0,1-.15,0l-5.86-1.23-.61-.79.16-1.43L23,17.32l1.63,2.31,5,1.06A.2.2,0,0,1,29.85,20.92Z"/><path class="cls-2" d="M19.87,9.28a4.64,4.64,0,1,0-4.47-4.8A4.65,4.65,0,0,0,19.87,9.28Zm.28-8.13a3.49,3.49,0,1,1-3.61,3.37A3.49,3.49,0,0,1,20.15,1.15Z"/></g></g></svg>