<?xml version="1.0" encoding="utf-8"?>
<!-- Generator: Adobe Illustrator 19.0.1, SVG Export Plug-In . SVG Version: 6.00 Build 0)  -->
<svg version="1.1" id="Layer_1" xmlns="http://www.w3.org/2000/svg" xmlns:xlink="http://www.w3.org/1999/xlink" x="0px" y="0px"
	 viewBox="0 0 73.6 41.8" style="enable-background:new 0 0 73.6 41.8;" xml:space="preserve">
<style type="text/css">
	.st0{fill:none;}
	.st1{fill:#DF3C2D;}
	.st2{fill:#5A9F44;}
	.st3{clip-path:url(#SVGID_2_);fill:url(#SVGID_3_);}
	.st4{clip-path:url(#SVGID_5_);fill:url(#SVGID_6_);}
</style>
<line class="st0" x1="-107.1" y1="-433.5" x2="-107.1" y2="161.7"/>
<line class="st0" x1="-107.1" y1="-433.5" x2="-107.1" y2="161.7"/>
<line class="st0" x1="-107.1" y1="-433.5" x2="-107.1" y2="161.7"/>
<line class="st0" x1="-107.1" y1="-433.5" x2="-107.1" y2="161.7"/>
<path class="st1" d="M14.5,27.3C14.5,27.3,14.5,27.3,14.5,27.3c-3.5,0-6.3-2.8-6.3-6.3c0-3.5,2.8-6.3,6.3-6.3c0,0,0,0,0,0V8.1
	c0,0,0,0,0,0C7.4,8.1,1.6,13.9,1.6,21c0,7.1,5.8,12.9,12.9,12.9c0,0,0,0,0,0V27.3z"/>
<path class="st2" d="M52.9,1.6v6.6c7,0.1,12.6,5.8,12.6,12.8c0,7-5.6,12.7-12.6,12.8v6.6C63.4,40.3,72,31.6,72,21
	C72,10.4,63.4,1.7,52.9,1.6"/>
<line class="st0" x1="-107.1" y1="-433.5" x2="-107.1" y2="161.7"/>
<g>
	<defs>
		<path id="SVGID_1_" d="M27.1,18.9c-4,5-7.7,8.4-12.6,8.4c-3.5,0-6.3-2.8-6.3-6.3H1.6c0,7.1,5.8,12.9,12.9,12.9
			c8,0,13.5-5.5,17.8-10.8c7.4-9.2,13.4-14.9,20.4-14.9c7.1,0,12.8,5.8,12.8,12.8H72c0-10.7-8.7-19.4-19.4-19.4
			C41.9,1.6,34.2,10.2,27.1,18.9"/>
	</defs>
	<clipPath id="SVGID_2_">
		<use xlink:href="#SVGID_1_"  style="overflow:visible;"/>
	</clipPath>
	
		<linearGradient id="SVGID_3_" gradientUnits="userSpaceOnUse" x1="-107.125" y1="162.3795" x2="-106.125" y2="162.3795" gradientTransform="matrix(45.048 -37.7997 -37.7997 -45.048 10979.373 3301.0183)">
		<stop  offset="0" style="stop-color:#DF3C2D"/>
		<stop  offset="0.1022" style="stop-color:#DF3C2D"/>
		<stop  offset="0.1474" style="stop-color:#D73B2C"/>
		<stop  offset="0.2192" style="stop-color:#C03929"/>
		<stop  offset="0.3081" style="stop-color:#9A3624"/>
		<stop  offset="0.386" style="stop-color:#74331F"/>
		<stop  offset="0.449" style="stop-color:#6F4726"/>
		<stop  offset="0.6661" style="stop-color:#60863B"/>
		<stop  offset="0.7688" style="stop-color:#5A9F44"/>
		<stop  offset="1" style="stop-color:#5A9F44"/>
	</linearGradient>
	<polygon class="st3" points="-14.3,14.9 42.9,-33.1 87.9,20.5 30.7,68.5 	"/>
</g>
<g>
	<defs>
		<path id="SVGID_4_" d="M1.6,21h6.6c0-3.5,2.8-6.3,6.3-6.3c4.9,0,8.6,3.3,12.6,8.4c7,8.8,14.8,17.4,25.5,17.4
			C63.3,40.4,72,31.7,72,21h-6.6c0,7.1-5.8,12.8-12.8,12.8c-7,0-13-5.7-20.4-14.9C28,13.6,22.5,8.1,14.5,8.1
			C7.4,8.1,1.6,13.9,1.6,21"/>
	</defs>
	<clipPath id="SVGID_5_">
		<use xlink:href="#SVGID_4_"  style="overflow:visible;"/>
	</clipPath>
	
		<linearGradient id="SVGID_6_" gradientUnits="userSpaceOnUse" x1="-107.125" y1="161.3922" x2="-106.125" y2="161.3922" gradientTransform="matrix(74.4078 0 0 -74.4078 7973.4438 12033.1064)">
		<stop  offset="0" style="stop-color:#DF3C2D"/>
		<stop  offset="8.602160e-002" style="stop-color:#DF3C2D"/>
		<stop  offset="0.183" style="stop-color:#E55629"/>
		<stop  offset="0.3736" style="stop-color:#F29420"/>
		<stop  offset="0.8226" style="stop-color:#5A9F44"/>
		<stop  offset="1" style="stop-color:#5A9F44"/>
	</linearGradient>
	<rect x="1.6" y="8.1" class="st4" width="70.4" height="32.3"/>
</g>
</svg>
