<svg xmlns="http://www.w3.org/2000/svg" width="26" height="26"><path fill="#4D4D4D" fill-rule="evenodd" d="M5.92 9.8a5.96 5.96 0 0 0-.78 1.9l-1.17.63v1.4l1.18.62c.16.67.42 1.3.78 1.86l-.4 1.29 1 .99 1.3-.4c.55.35 1.17.6 1.83.76l.64 1.2h1.4l.64-1.2a5.81 5.81 0 0 0 1.83-.76l1.3.4 1-1-.4-1.28c.36-.56.62-1.19.78-1.86l1.18-.62v-1.4l-1.17-.63a5.96 5.96 0 0 0-.78-1.9l.38-1.25-.99-.99-1.24.38a5.97 5.97 0 0 0-1.92-.8L11.7 6h-1.4l-.61 1.14c-.7.16-1.34.43-1.92.8l-1.24-.38-1 1 .39 1.25zM6.5 13a4.5 4.5 0 1 1 9 0 4.5 4.5 0 0 1-9 0zm6.5 0a2 2 0 1 0-4 0 2 2 0 0 0 4 0zm-3 0a1 1 0 1 1 2 0 1 1 0 0 1-2 0z"/></svg>