<svg xmlns="http://www.w3.org/2000/svg" width="32" height="32"><g fill="#333" fill-rule="evenodd"><path d="M9 22.75V24a1 1 0 1 1-2 0v-5a1 1 0 0 1 2 0v1.5l-1 3 1-.75z"/><path d="M11.5 23H13a1 1 0 1 1 0 2H8a1 1 0 1 1 0-2h1.25l-.75 1 3-1zM23 9.25V8a1 1 0 1 1 2 0v5a1 1 0 0 1-2 0v-1.5l1-3-1 .75z"/><path d="M20.5 9H19a1 1 0 1 1 0-2h5a1 1 0 1 1 0 2h-1.25l.75-1-3 1zM10.66 22.76l3.22-3.22a1 1 0 1 0-1.42-1.42l-3.22 3.22L8 23h-.41l-.3.3a1 1 0 0 0 1.42 1.4l.29-.29V24l1.66-1.24z"/><path d="M21.34 9.24l-3.22 3.22a1 1 0 1 0 1.42 1.42l3.22-3.22L24 9h.41l.3-.3a1 1 0 0 0-1.42-1.4l-.29.29V8l-1.66 1.24z"/></g></svg>