<svg xmlns="http://www.w3.org/2000/svg" viewBox="0 0 14 14"><defs><style>.cls-1{fill:gray;}</style></defs><title>calendar_1</title><g id="Layer_2" data-name="Layer 2"><g id="Layer_1-2" data-name="Layer 1"><path id="Calendar" class="cls-1" d="M13.12,14H.88A.88.88,0,0,1,0,13.12V2.18a.88.88,0,0,1,.88-.88H13.12a.87.87,0,0,1,.88.87h0V13.12a.87.87,0,0,1-.87.88Zm0-11.82H.88V13.12H13.12Zm-7.88.44a.44.44,0,0,1-.44.44h0a.44.44,0,0,1-.44-.44V.44A.44.44,0,0,1,4.81,0h0a.44.44,0,0,1,.44.44Zm4.38,0a.44.44,0,0,1-.44.44h0a.44.44,0,0,1-.44-.44V.44A.44.44,0,0,1,9.18,0h0a.44.44,0,0,1,.44.44Zm.44,2.62h.88a.44.44,0,0,1,.44.44h0v.87a.44.44,0,0,1-.44.44h-.88a.44.44,0,0,1-.44-.44V5.69a.44.44,0,0,1,.44-.44Zm0,3.5h.88a.44.44,0,0,1,.44.44h0v.88a.44.44,0,0,1-.44.44h-.88a.44.44,0,0,1-.44-.44h0V9.19a.44.44,0,0,1,.44-.44Zm-3.5,0h.88a.44.44,0,0,1,.44.44h0v.88a.44.44,0,0,1-.44.44H6.56a.44.44,0,0,1-.44-.44V9.19a.44.44,0,0,1,.44-.44h0Zm0-3.5h.88a.44.44,0,0,1,.44.44h0v.87A.44.44,0,0,1,7.44,7H6.56a.44.44,0,0,1-.44-.44h0V5.69a.44.44,0,0,1,.44-.44h0Zm-3.5,0h.88a.44.44,0,0,1,.44.44v.87A.44.44,0,0,1,3.93,7H3.06a.44.44,0,0,1-.44-.44h0V5.69a.44.44,0,0,1,.44-.44h0Zm0,3.5h.88a.44.44,0,0,1,.44.44v.88a.44.44,0,0,1-.44.44H3.06a.44.44,0,0,1-.44-.44h0V9.19a.44.44,0,0,1,.44-.44h0Z"/></g></g></svg>