<svg xmlns="http://www.w3.org/2000/svg" viewBox="0 0 14 12"><defs><style>.cls-1{fill:gray;}</style></defs><title>comment</title><g id="Layer_2" data-name="Layer 2"><g id="Layer_1-2" data-name="Layer 1"><path id="Bubble" class="cls-1" d="M7,.86c3.38,0,6.12,1.92,6.12,4.28S10.37,9.42,7,9.42H6.63a4,4,0,0,1-.64,0L5.5,9.31l-.32.37a6.6,6.6,0,0,1-1.7,1.15,4.13,4.13,0,0,0,.3-1.36V8.85l-.48-.24A4,4,0,0,1,.87,5.14C.87,2.78,3.62.86,7,.86M7,0C3.13,0,0,2.3,0,5.14A4.77,4.77,0,0,0,2.92,9.37v0a4.49,4.49,0,0,1-.7,2.05h0a.38.38,0,0,0,0,.15.39.39,0,0,0,.39.39H2.7a6.76,6.76,0,0,0,3.17-1.76,4.81,4.81,0,0,0,.77.05H7c3.86,0,7-2.3,7-5.14S10.87,0,7,0H7Z"/></g></g></svg>