<?xml version="1.0" encoding="utf-8"?>
<svg version="1.1" id="Layer_1" x="0px" y="0px" viewBox="0 0 110.7 65.3" style="enable-background:new 0 0 110.7 65.3;" xmlns="http://www.w3.org/2000/svg">
  <style type="text/css">
	.st0{fill:none;}
	.st1{fill:#292829;}
	.st2{fill:#DF3C2D;}
	.st3{fill:#5A9F44;}
	.st4{clip-path:url(#SVGID_2_);fill:url(#SVGID_3_);}
	.st5{clip-path:url(#SVGID_5_);fill:url(#SVGID_6_);}
</style>
  <line class="st0" x1="-71.7" y1="-431.3" x2="-71.7" y2="164"/>
  <path class="st2" d="M 50.033 29.683 C 50.033 29.683 49.917 29.683 49.917 29.683 C 46.471 29.683 43.784 26.791 43.702 23.361 C 43.701 23.307 43.7 23.254 43.7 23.2 C 43.7 19.7 46.5 16.9 50 16.9 C 50 16.9 50 16.9 50 16.9 L 50.05 10.467 C 50.05 10.467 49.9 10.467 49.9 10.467 C 42.8 10.467 36.967 16.117 36.967 23.217 C 36.967 30.317 42.9 36.1 50 36.1 C 50 36.1 50 36.1 50 36.1 L 50.033 29.683 Z"/>
   <line class="st0" x1="-71.7" y1="-431.3" x2="-71.7" y2="164"/>
  <g transform="matrix(1, 0, 0, 1, -0.116063, 0)">
    <defs>
      <path id="SVGID_1_" d="M62.6,21.2c-4,5-7.7,8.4-12.6,8.4c-3.5,0-6.3-2.8-6.3-6.3h-6.6c0,7.1,5.8,12.9,12.9,12.9&#10;&#9;&#9;&#9;c8,0,13.5-5.5,17.8-10.8c7.4-9.2,13.4-14.9,20.4-14.9c7.1,0,12.8,5.8,12.8,12.8h6.6c0-10.7-8.7-19.4-19.4-19.4&#10;&#9;&#9;&#9;C77.4,3.8,69.6,12.4,62.6,21.2"/>
    </defs>
    <clipPath id="SVGID_2_">
      <path id="" d="M62.6,21.2c-4,5-7.7,8.4-12.6,8.4c-3.5,0-6.3-2.8-6.3-6.3h-6.6c0,7.1,5.8,12.9,12.9,12.9&#10;&#9;&#9;&#9;c8,0,13.5-5.5,17.8-10.8c7.4-9.2,13.4-14.9,20.4-14.9c7.1,0,12.8,5.8,12.8,12.8h6.6c0-10.7-8.7-19.4-19.4-19.4&#10;&#9;&#9;&#9;C77.4,3.8,69.6,12.4,62.6,21.2" transform="matrix(1, 0, 0, 1, 0, 0)" style="overflow: visible;"/>
    </clipPath>
    <linearGradient id="SVGID_3_" gradientUnits="userSpaceOnUse" x1="-71.6667" y1="164.6295" x2="-70.6667" y2="164.6295" gradientTransform="matrix(45.048 -37.7997 -37.7997 -45.048 9502.5547 4744.9424)">
      <stop offset="0" style="stop-color:#DF3C2D"/>
      <stop offset="0.1022" style="stop-color:#DF3C2D"/>
      <stop offset="0.1474" style="stop-color:#D73B2C"/>
      <stop offset="0.2192" style="stop-color:#C03929"/>
      <stop offset="0.3081" style="stop-color:#9A3624"/>
      <stop offset="0.386" style="stop-color:#74331F"/>
      <stop offset="0.449" style="stop-color:#6F4726"/>
      <stop offset="0.6661" style="stop-color:#60863B"/>
      <stop offset="0.7688" style="stop-color:#5A9F44"/>
      <stop offset="1" style="stop-color:#5A9F44"/>
    </linearGradient>
    <polygon class="st4" points="21.2 17.2 78.4 -30.8 123.345 22.883 66.2 70.8" transform=""/>
  </g>
  <g>
    <defs>
      <path id="SVGID_4_" d="M37.1,23.2h6.6c0-3.5,2.8-6.3,6.3-6.3c4.9,0,8.6,3.3,12.6,8.4c7,8.8,14.8,17.4,25.5,17.4&#10;&#9;&#9;&#9;c10.7,0,19.4-8.7,19.4-19.4h-6.6c0,7.1-5.8,12.8-12.8,12.8c-7,0-13-5.7-20.4-14.9C63.4,15.8,58,10.4,50,10.4&#10;&#9;&#9;&#9;C42.9,10.4,37.1,16.1,37.1,23.2"/>
    </defs>
    <clipPath id="SVGID_5_">
      <path id="" d="M37.1,23.2h6.6c0-3.5,2.8-6.3,6.3-6.3c4.9,0,8.6,3.3,12.6,8.4c7,8.8,14.8,17.4,25.5,17.4&#10;&#9;&#9;&#9;c10.7,0,19.4-8.7,19.4-19.4h-6.6c0,7.1-5.8,12.8-12.8,12.8c-7,0-13-5.7-20.4-14.9C63.4,15.8,58,10.4,50,10.4&#10;&#9;&#9;&#9;C42.9,10.4,37.1,16.1,37.1,23.2" transform="matrix(1, 0, 0, 1, 0, 0)" style="overflow: visible;"/>
    </clipPath>
    <linearGradient id="SVGID_6_" gradientUnits="userSpaceOnUse" x1="-71.6667" y1="163.6422" x2="-70.6667" y2="163.6422" gradientTransform="matrix(74.4078 0 0 -74.4078 5370.5254 12202.7744)">
      <stop offset="0" style="stop-color:#DF3C2D"/>
      <stop offset="0.086" style="stop-color:#DF3C2D"/>
      <stop offset="0.183" style="stop-color:#E55629"/>
      <stop offset="0.3736" style="stop-color:#F29420"/>
      <stop offset="0.8226" style="stop-color:#5A9F44"/>
      <stop offset="1" style="stop-color:#5A9F44"/>
    </linearGradient>
    <rect x="37.1" y="10.4" class="st5" width="70.4" height="32.3"/>
  </g>
</svg>