<svg xmlns="http://www.w3.org/2000/svg" viewBox="0 0 15 15"><defs><style>.cls-1{fill:#5a9f44;}</style></defs><title>info</title><g id="Layer_2" data-name="Layer 2"><g id="Layer_1-2" data-name="Layer 1"><path class="cls-1" d="M7.5,0A7.5,7.5,0,1,0,15,7.5,7.5,7.5,0,0,0,7.5,0ZM7.33,2.46A1.31,1.31,0,1,1,6,3.77,1.31,1.31,0,0,1,7.33,2.46Zm2.35,9.3H5.47v-.3a5.51,5.51,0,0,0,.6-.13.92.92,0,0,0,.3-.15.63.63,0,0,0,.19-.3,2.14,2.14,0,0,0,.07-.64V7.55c0-.26,0-.48,0-.64a.65.65,0,0,0-.15-.39.78.78,0,0,0-.39-.22,5,5,0,0,0-.75-.12V5.86l2.5-.06h.65v4.41a2.16,2.16,0,0,0,.09.74.6.6,0,0,0,.33.32,3.29,3.29,0,0,0,.79.19v.3Z"/></g></g></svg>