<?xml version="1.0" encoding="utf-8"?>
<!-- Generator: Adobe Illustrator 21.0.2, SVG Export Plug-In . SVG Version: 6.00 Build 0)  -->
<svg version="1.1" id="Layer_1" xmlns="http://www.w3.org/2000/svg" xmlns:xlink="http://www.w3.org/1999/xlink" x="0px" y="0px"
	 viewBox="0 0 13.2 13.2" style="enable-background:new 0 0 13.2 13.2;" xml:space="preserve">
<style type="text/css">
	.st0{fill:url(#SVGID_1_);}
	.st1{fill:url(#SVGID_2_);}
	.st2{fill:url(#SVGID_3_);}
</style>
<g>
	<linearGradient id="SVGID_1_" gradientUnits="userSpaceOnUse" x1="3.2741" y1="6.6046" x2="9.9351" y2="6.6046">
		<stop  offset="0" style="stop-color:#DF462B"/>
		<stop  offset="0.111" style="stop-color:#DF5929"/>
		<stop  offset="0.3772" style="stop-color:#DF8124"/>
		<stop  offset="0.5154" style="stop-color:#DF9022"/>
		<stop  offset="0.5867" style="stop-color:#D69124"/>
		<stop  offset="0.7056" style="stop-color:#BC942B"/>
		<stop  offset="0.8561" style="stop-color:#939935"/>
		<stop  offset="1" style="stop-color:#659E41"/>
	</linearGradient>
	<path class="st0" d="M6.6,9.9c-1.8,0-3.3-1.5-3.3-3.3s1.5-3.3,3.3-3.3c1.8,0,3.3,1.5,3.3,3.3S8.4,9.9,6.6,9.9z M6.6,4.3
		c-1.3,0-2.3,1-2.3,2.3c0,1.3,1,2.3,2.3,2.3s2.3-1,2.3-2.3C8.9,5.3,7.9,4.3,6.6,4.3z"/>
</g>
<g>
	<linearGradient id="SVGID_2_" gradientUnits="userSpaceOnUse" x1="9.3637" y1="3.2103" x2="11.118" y2="3.2103">
		<stop  offset="0" style="stop-color:#DF462B"/>
		<stop  offset="0.111" style="stop-color:#DF5929"/>
		<stop  offset="0.3772" style="stop-color:#DF8124"/>
		<stop  offset="0.5154" style="stop-color:#DF9022"/>
		<stop  offset="0.5867" style="stop-color:#D69124"/>
		<stop  offset="0.7056" style="stop-color:#BC942B"/>
		<stop  offset="0.8561" style="stop-color:#939935"/>
		<stop  offset="1" style="stop-color:#659E41"/>
	</linearGradient>
	<path class="st1" d="M10.2,4.1c-0.5,0-0.9-0.4-0.9-0.9s0.4-0.9,0.9-0.9c0.5,0,0.9,0.4,0.9,0.9S10.7,4.1,10.2,4.1z M10.2,3.2
		C10.2,3.2,10.2,3.2,10.2,3.2C10.2,3.2,10.3,3.2,10.2,3.2C10.3,3.2,10.2,3.2,10.2,3.2z"/>
</g>
<g>
	<linearGradient id="SVGID_3_" gradientUnits="userSpaceOnUse" x1="0" y1="6.6046" x2="13.2092" y2="6.6046">
		<stop  offset="0" style="stop-color:#DF462B"/>
		<stop  offset="0.111" style="stop-color:#DF5929"/>
		<stop  offset="0.3772" style="stop-color:#DF8124"/>
		<stop  offset="0.5154" style="stop-color:#DF9022"/>
		<stop  offset="0.5867" style="stop-color:#D69124"/>
		<stop  offset="0.7056" style="stop-color:#BC942B"/>
		<stop  offset="0.8561" style="stop-color:#939935"/>
		<stop  offset="1" style="stop-color:#659E41"/>
	</linearGradient>
	<path class="st2" d="M9.9,13.2H3.3C1.5,13.2,0,11.7,0,9.9V3.3C0,1.5,1.5,0,3.3,0h6.5c1.8,0,3.3,1.5,3.3,3.3v6.5
		C13.2,11.7,11.7,13.2,9.9,13.2z M3.3,1C2.1,1,1,2.1,1,3.3v6.5c0,1.3,1,2.3,2.3,2.3h6.5c1.3,0,2.3-1,2.3-2.3V3.3
		c0-1.3-1-2.3-2.3-2.3H3.3z"/>
</g>
</svg>
