<?xml version="1.0" encoding="utf-8"?>
<!-- Generator: Adobe Illustrator 19.0.1, SVG Export Plug-In . SVG Version: 6.00 Build 0)  -->
<svg version="1.1" id="Слой_1" xmlns="http://www.w3.org/2000/svg" xmlns:xlink="http://www.w3.org/1999/xlink" x="0px" y="0px"
	 viewBox="0 0 90 56.3" style="enable-background:new 0 0 90 56.3;" xml:space="preserve">
<style type="text/css">
	.st0{clip-path:url(#SVGID_2_);}
</style>
<g>
	<defs>
		<rect id="SVGID_1_" y="0" width="90" height="56.3"/>
	</defs>
	<clipPath id="SVGID_2_">
		<use xlink:href="#SVGID_1_"  style="overflow:visible;"/>
	</clipPath>
	<path class="st0" fill="#d4d4d4" d="M0.2,20.9c1.3,8.7,8.7,14.9,17.1,15.3C15.2,44,10.1,47.1,3.9,48.9c-0.6,0.2-0.5,0.8-0.5,0.8l1,6.2
		c0,0,0.1,0.5,0.9,0.4c21.4-2.4,35.9-18.7,33.2-38.5C36,4.1,25.3-1.2,15.4,0.2C5.5,1.8-1.3,11,0.2,20.9 M68.5,36.2
		c-2,7.8-7.3,10.9-13.4,12.7c-0.6,0.2-0.5,0.8-0.5,0.8l0.9,6.2c0,0,0.1,0.5,0.9,0.4c21.5-2.4,35.8-18.7,33.3-38.5
		C87.1,4.1,76.3-1.2,66.5,0.2C56.6,1.8,49.8,11,51.4,20.9C52.7,29.7,60,35.9,68.5,36.2"/>
</g>
</svg>
