<?xml version="1.0" encoding="utf-8"?>
<svg version="1.1" id="Layer_1" x="0px" y="0px" viewBox="0 0 110.7 65.3" style="enable-background:new 0 0 110.7 65.3;" xmlns="http://www.w3.org/2000/svg">
  <style type="text/css">
	.st0{fill:none;}
	.st1{fill:#292829;}
	.st2{fill:#DF3C2D;}
	.st3{fill:#5A9F44;}
	.st4{clip-path:url(#SVGID_2_);fill:url(#SVGID_3_);}
	.st5{clip-path:url(#SVGID_5_);fill:url(#SVGID_6_);}
</style>
  <line class="st0" x1="-71.7" y1="-431.3" x2="-71.7" y2="164"/>
  <polygon class="st1" points="3.9,43.5 5.9,43.5 5.9,47.7 8.7,43.5 10.6,43.5 10.6,51 8.6,51 8.6,46.8 5.8,51 3.9,51 "/>
  <polygon class="st1" points="12.3,43.5 14.3,43.5 14.3,46.3 16.9,46.3 16.9,43.5 19,43.5 19,51 16.9,51 16.9,48.1 14.3,48.1 &#10;&#9;14.3,51 12.3,51 "/>
  <path class="st1" d="M20.3,47.3c0-2.2,1.6-3.9,3.9-3.9c1.5,0,2.4,0.7,3.1,1.6l-1.5,1.2c-0.4-0.5-0.9-0.9-1.6-0.9c-1,0-1.8,0.9-1.8,2&#10;&#9;c0,1.1,0.7,2,1.8,2c0.8,0,1.2-0.4,1.7-0.9l1.5,1.1c-0.7,1-1.6,1.7-3.3,1.7C22,51.1,20.3,49.5,20.3,47.3"/>
  <line class="st0" x1="-71.7" y1="-431.3" x2="-71.7" y2="164"/>
  <polygon class="st1" points="30.3,45.3 28.2,45.3 28.2,43.5 34.6,43.5 34.6,45.3 32.4,45.3 32.4,51 30.3,51 "/>
  <polygon class="st1" points="35.7,43.5 37.7,43.5 37.7,47.7 40.5,43.5 42.4,43.5 42.4,51 40.4,51 40.4,46.8 37.6,51 35.7,51 "/>
  <polygon class="st1" points="45.7,45.3 43.5,45.3 43.5,43.5 50,43.5 50,45.3 47.8,45.3 47.8,51 45.7,51 "/>
  <path class="st1" d="M51.1,50.6l0.8-1.5c0.3,0.2,0.6,0.3,0.8,0.3c0.2,0,0.4-0.1,0.6-0.3l-2.9-5.5h2.3l1.7,3.5l1.6-3.5h2.2l-2.9,5.7&#10;&#9;c-0.7,1.3-1.3,1.9-2.5,1.9C52.1,51.1,51.6,50.9,51.1,50.6"/>
  <line class="st0" x1="-71.7" y1="-431.3" x2="-71.7" y2="164"/>
  <polygon class="st1" points="60.9,45.3 58.7,45.3 58.7,43.5 65.1,43.5 65.1,45.3 62.9,45.3 62.9,51 60.9,51 "/>
  <path class="st1" d="M7.5,59.3v-3.8H5.9v0.1c0,1.6-0.2,2.7-0.6,3.7H7.5z M2.6,59.3h0.6C3.7,57.9,4,56.7,4,53.9v-0.2h5.6v5.6h0.8&#10;&#9;l0,3.3h-2v-1.5H4.5l-0.1,1.5H2.6V59.3z"/>
  <path class="st1" d="M15.1,59.4c0.6,0,1-0.2,1-0.7c0-0.4-0.3-0.7-1-0.7h-1.6v1.4H15.1z M14.8,56.6c0.6,0,1-0.2,1-0.7&#10;&#9;c0-0.4-0.3-0.6-0.9-0.6h-1.3v1.3H14.8z M11.5,53.7h3.8c0.9,0,1.6,0.2,2,0.7c0.3,0.3,0.5,0.7,0.5,1.2c0,0.9-0.5,1.4-1.1,1.7&#10;&#9;c0.9,0.3,1.5,0.8,1.5,1.8c0,1.3-1,2-2.8,2h-3.8V53.7z"/>
  <line class="st0" x1="-71.7" y1="-431.3" x2="-71.7" y2="164"/>
  <polygon class="st1" points="19.4,53.7 21.4,53.7 21.4,57.9 24.2,53.7 26.1,53.7 26.1,61.1 24.1,61.1 24.1,56.9 21.3,61.1 &#10;&#9;19.4,61.1 "/>
  <polygon class="st1" points="29.8,56.8 27.2,53.7 29.5,53.7 31.8,56.7 31.8,53.7 33.9,53.7 33.9,56.7 36.2,53.7 38.6,53.7 36,56.8 &#10;&#9;38.7,61.1 36.3,61.1 34.6,58.3 33.9,59.1 33.9,61.1 31.8,61.1 31.8,59.1 31.1,58.3 29.5,61.1 27.1,61.1 "/>
  <polygon class="st1" points="39.6,53.7 45.5,53.7 45.5,55.4 41.6,55.4 41.6,56.5 45.1,56.5 45.1,58.2 41.6,58.2 41.6,59.3 &#10;&#9;45.6,59.3 45.6,61.1 39.6,61.1 "/>
  <polygon class="st1" points="47,53.7 49,53.7 49,56.5 51.6,56.5 51.6,53.7 53.7,53.7 53.7,61.1 51.6,61.1 51.6,58.3 49,58.3 &#10;&#9;49,61.1 47,61.1 "/>
  <polygon class="st1" points="55.3,53.7 57.3,53.7 57.3,57.9 60.2,53.7 62.1,53.7 62.1,61.1 60.1,61.1 60.1,56.9 57.2,61.1 &#10;&#9;55.3,61.1 "/>
  <path class="st1" d="M68,57.3v-1.8h-1.3c-0.7,0-1.1,0.3-1.1,0.9c0,0.5,0.4,0.9,1.1,0.9H68z M65,58.5c-0.9-0.4-1.5-1.1-1.5-2.3&#10;&#9;c0-1.7,1.4-2.5,3-2.5H70v7.4h-2v-2.2h-0.9l-1.5,2.2h-2.3L65,58.5z"/>
  <path class="st2" d="M 50.033 29.683 C 50.033 29.683 49.917 29.683 49.917 29.683 C 46.471 29.683 43.784 26.791 43.702 23.361 C 43.701 23.307 43.7 23.254 43.7 23.2 C 43.7 19.7 46.5 16.9 50 16.9 C 50 16.9 50 16.9 50 16.9 L 50.05 10.467 C 50.05 10.467 49.9 10.467 49.9 10.467 C 42.8 10.467 36.967 16.117 36.967 23.217 C 36.967 30.317 42.9 36.1 50 36.1 C 50 36.1 50 36.1 50 36.1 L 50.033 29.683 Z"/>
  <path class="st3" d="M 88.467 4 L 88.3 10.4 C 95.3 10.5 100.9 16.2 100.9 23.2 C 100.9 30.2 95.3 36.083 88.3 36.183 L 88.3 42.6 C 98.9 42.5 107.5 33.8 107.5 23.2 C 107.5 12.6 98.933 4.2 88.333 4"/>
  <line class="st0" x1="-71.7" y1="-431.3" x2="-71.7" y2="164"/>
  <g transform="matrix(1, 0, 0, 1, -0.116063, 0)">
    <defs>
      <path id="SVGID_1_" d="M62.6,21.2c-4,5-7.7,8.4-12.6,8.4c-3.5,0-6.3-2.8-6.3-6.3h-6.6c0,7.1,5.8,12.9,12.9,12.9&#10;&#9;&#9;&#9;c8,0,13.5-5.5,17.8-10.8c7.4-9.2,13.4-14.9,20.4-14.9c7.1,0,12.8,5.8,12.8,12.8h6.6c0-10.7-8.7-19.4-19.4-19.4&#10;&#9;&#9;&#9;C77.4,3.8,69.6,12.4,62.6,21.2"/>
    </defs>
    <clipPath id="SVGID_2_">
      <path id="" d="M62.6,21.2c-4,5-7.7,8.4-12.6,8.4c-3.5,0-6.3-2.8-6.3-6.3h-6.6c0,7.1,5.8,12.9,12.9,12.9&#10;&#9;&#9;&#9;c8,0,13.5-5.5,17.8-10.8c7.4-9.2,13.4-14.9,20.4-14.9c7.1,0,12.8,5.8,12.8,12.8h6.6c0-10.7-8.7-19.4-19.4-19.4&#10;&#9;&#9;&#9;C77.4,3.8,69.6,12.4,62.6,21.2" transform="matrix(1, 0, 0, 1, 0, 0)" style="overflow: visible;"/>
    </clipPath>
    <linearGradient id="SVGID_3_" gradientUnits="userSpaceOnUse" x1="-71.6667" y1="164.6295" x2="-70.6667" y2="164.6295" gradientTransform="matrix(45.048 -37.7997 -37.7997 -45.048 9502.5547 4744.9424)">
      <stop offset="0" style="stop-color:#DF3C2D"/>
      <stop offset="0.1022" style="stop-color:#DF3C2D"/>
      <stop offset="0.1474" style="stop-color:#D73B2C"/>
      <stop offset="0.2192" style="stop-color:#C03929"/>
      <stop offset="0.3081" style="stop-color:#9A3624"/>
      <stop offset="0.386" style="stop-color:#74331F"/>
      <stop offset="0.449" style="stop-color:#6F4726"/>
      <stop offset="0.6661" style="stop-color:#60863B"/>
      <stop offset="0.7688" style="stop-color:#5A9F44"/>
      <stop offset="1" style="stop-color:#5A9F44"/>
    </linearGradient>
    <polygon class="st4" points="21.2 17.2 78.4 -30.8 123.345 22.883 66.2 70.8" transform=""/>
  </g>
  <g>
    <defs>
      <path id="SVGID_4_" d="M37.1,23.2h6.6c0-3.5,2.8-6.3,6.3-6.3c4.9,0,8.6,3.3,12.6,8.4c7,8.8,14.8,17.4,25.5,17.4&#10;&#9;&#9;&#9;c10.7,0,19.4-8.7,19.4-19.4h-6.6c0,7.1-5.8,12.8-12.8,12.8c-7,0-13-5.7-20.4-14.9C63.4,15.8,58,10.4,50,10.4&#10;&#9;&#9;&#9;C42.9,10.4,37.1,16.1,37.1,23.2"/>
    </defs>
    <clipPath id="SVGID_5_">
      <path id="" d="M37.1,23.2h6.6c0-3.5,2.8-6.3,6.3-6.3c4.9,0,8.6,3.3,12.6,8.4c7,8.8,14.8,17.4,25.5,17.4&#10;&#9;&#9;&#9;c10.7,0,19.4-8.7,19.4-19.4h-6.6c0,7.1-5.8,12.8-12.8,12.8c-7,0-13-5.7-20.4-14.9C63.4,15.8,58,10.4,50,10.4&#10;&#9;&#9;&#9;C42.9,10.4,37.1,16.1,37.1,23.2" transform="matrix(1, 0, 0, 1, 0, 0)" style="overflow: visible;"/>
    </clipPath>
    <linearGradient id="SVGID_6_" gradientUnits="userSpaceOnUse" x1="-71.6667" y1="163.6422" x2="-70.6667" y2="163.6422" gradientTransform="matrix(74.4078 0 0 -74.4078 5370.5254 12202.7744)">
      <stop offset="0" style="stop-color:#DF3C2D"/>
      <stop offset="0.086" style="stop-color:#DF3C2D"/>
      <stop offset="0.183" style="stop-color:#E55629"/>
      <stop offset="0.3736" style="stop-color:#F29420"/>
      <stop offset="0.8226" style="stop-color:#5A9F44"/>
      <stop offset="1" style="stop-color:#5A9F44"/>
    </linearGradient>
    <rect x="37.1" y="10.4" class="st5" width="70.4" height="32.3"/>
  </g>
</svg>