<svg xmlns="http://www.w3.org/2000/svg" xmlns:xlink="http://www.w3.org/1999/xlink" viewBox="0 0 22 15"><defs><style>.cls-1{fill:url(#linear-gradient);}</style><linearGradient id="linear-gradient" y1="7.5" x2="22" y2="7.5" gradientUnits="userSpaceOnUse"><stop offset="0" stop-color="#df462b"/><stop offset="0.11" stop-color="#df5929"/><stop offset="0.38" stop-color="#df8124"/><stop offset="0.52" stop-color="#df9022"/><stop offset="0.59" stop-color="#d69124"/><stop offset="0.71" stop-color="#bc942b"/><stop offset="0.86" stop-color="#939935"/><stop offset="1" stop-color="#659e41"/></linearGradient></defs><title>mail</title><g id="Layer_2" data-name="Layer 2"><g id="Layer_1-2" data-name="Layer 1"><path class="cls-1" d="M19.46,0H2.54A2.55,2.55,0,0,0,0,2.54v9.91A2.55,2.55,0,0,0,2.54,15H19.46A2.55,2.55,0,0,0,22,12.46V2.54A2.55,2.55,0,0,0,19.46,0Zm-.28,1.5L11,8,2.83,1.5Zm1.33,11a1.06,1.06,0,0,1-1,1H2.54a1.06,1.06,0,0,1-1-1V2.54a1,1,0,0,1,0-.16l9,7.2a.75.75,0,0,0,.94,0l9-7.2a1,1,0,0,1,0,.16Z"/></g></g></svg>