<svg xmlns="http://www.w3.org/2000/svg" xmlns:xlink="http://www.w3.org/1999/xlink" viewBox="0 0 104 141"><defs><style>.cls-1{fill:url(#linear-gradient);}.cls-2{fill:url(#linear-gradient-2);}</style><linearGradient id="linear-gradient" x1="20.99" y1="31.9" x2="82.99" y2="31.9" gradientUnits="userSpaceOnUse"><stop offset="0" stop-color="#df462b"/><stop offset="0.11" stop-color="#df5929"/><stop offset="0.38" stop-color="#df8124"/><stop offset="0.52" stop-color="#df9022"/><stop offset="0.59" stop-color="#d69124"/><stop offset="0.71" stop-color="#bc942b"/><stop offset="0.86" stop-color="#939935"/><stop offset="1" stop-color="#659e41"/></linearGradient><linearGradient id="linear-gradient-2" x1="0" y1="107.05" x2="104" y2="107.05" xlink:href="#linear-gradient"/></defs><title>man_big</title><g id="Layer_2" data-name="Layer 2"><g id="Layer_1-2" data-name="Layer 1"><path class="cls-1" d="M52,63.81c17.09,0,31-14.31,31-31.9S69.09,0,52,0,21,14.31,21,31.9,34.9,63.81,52,63.81Zm0-50.3c9.86,0,17.88,8.25,17.88,18.4S61.85,50.3,52,50.3,34.12,42,34.12,31.9,42.14,13.5,52,13.5Z"/><path class="cls-2" d="M104,128.24V126.6c0-29.51-23.32-53.51-52-53.51S0,97.1,0,126.6v1.69H0V141H104V128.24ZM13.12,126.6c0-22.06,17.44-40,38.87-40s38.87,17.95,38.87,40v1.63H13.12Z"/></g></g></svg>