<svg xmlns="http://www.w3.org/2000/svg" xmlns:xlink="http://www.w3.org/1999/xlink" viewBox="0 0 22 22"><defs><style>.cls-1{fill:url(#linear-gradient);}</style><linearGradient id="linear-gradient" y1="11" x2="22" y2="11" gradientUnits="userSpaceOnUse"><stop offset="0" stop-color="#df462b"/><stop offset="0.11" stop-color="#df5929"/><stop offset="0.38" stop-color="#df8124"/><stop offset="0.52" stop-color="#df9022"/><stop offset="0.59" stop-color="#d69124"/><stop offset="0.71" stop-color="#bc942b"/><stop offset="0.86" stop-color="#939935"/><stop offset="1" stop-color="#659e41"/></linearGradient></defs><title>Phone</title><g id="Layer_2" data-name="Layer 2"><g id="Layer_1-2" data-name="Layer 1"><path id="End_call_copy" data-name="End call copy" class="cls-1" d="M4.3,1.34h.06C4.74,1.9,6.81,5,7.19,5.63a1,1,0,0,1-.14.44C6.93,6.32,6.54,7,6,8l-.43.76.5.71a27.63,27.63,0,0,0,3,3.44,27.36,27.36,0,0,0,3.44,3l.71.5L14,16l1.9-1.08a1,1,0,0,1,.43-.13h0c.53.33,3.73,2.46,4.29,2.85a.48.48,0,0,1-.1.32,10,10,0,0,1-2.59,2.65c-2.57-.12-6.18-2.39-10.18-6.4S1.49,6.6,1.37,4A9.83,9.83,0,0,1,4,1.43a.55.55,0,0,1,.3-.1M4.3,0A1.9,1.9,0,0,0,3.22.34S0,2.67,0,4C.12,7.76,3.75,12.16,6.78,15.2S14.2,21.88,18,22h0c1.31,0,3.62-3.2,3.65-3.23a1.59,1.59,0,0,0-.17-2.21c-.34-.24-4-2.69-4.46-3a1.32,1.32,0,0,0-.7-.18,2.33,2.33,0,0,0-1.07.29c-.35.19-1.42.8-1.95,1.1A34,34,0,0,1,7.17,8.67c.3-.53.91-1.6,1.09-2a1.81,1.81,0,0,0,.11-1.78C8.1,4.51,5.67.86,5.42.51A1.36,1.36,0,0,0,4.3,0h0Z"/></g></g></svg>