<svg xmlns="http://www.w3.org/2000/svg" xmlns:xlink="http://www.w3.org/1999/xlink" viewBox="0 0 105 105"><defs><style>.cls-1{fill:#fff;}.cls-2{fill:url(#linear-gradient);}</style><linearGradient id="linear-gradient" x1="4.5" y1="52.5" x2="100.5" y2="52.5" gradientUnits="userSpaceOnUse"><stop offset="0" stop-color="#df462b"/><stop offset="0.11" stop-color="#df5929"/><stop offset="0.38" stop-color="#df8124"/><stop offset="0.52" stop-color="#df9022"/><stop offset="0.59" stop-color="#d69124"/><stop offset="0.71" stop-color="#bc942b"/><stop offset="0.86" stop-color="#939935"/><stop offset="1" stop-color="#659e41"/></linearGradient></defs><title>play_big</title><g id="Layer_2" data-name="Layer 2"><g id="Layer_1-2" data-name="Layer 1"><circle class="cls-1" cx="52.5" cy="52.5" r="52.5"/><path class="cls-2" d="M52.5,4.5a48,48,0,1,0,48,48A48.14,48.14,0,0,0,52.5,4.5ZM75.17,54.37,42.37,73a3.27,3.27,0,0,1-1.6.53A3.85,3.85,0,0,1,38.9,73,3.91,3.91,0,0,1,37.3,70V32.63a3.57,3.57,0,0,1,1.6-3.07,3.25,3.25,0,0,1,3.47,0l32.8,18.67a3.45,3.45,0,0,1,0,6.13Z"/></g></g></svg>