<svg xmlns="http://www.w3.org/2000/svg" xmlns:xlink="http://www.w3.org/1999/xlink" viewBox="0 0 8 14"><defs><style>.cls-1{fill:url(#linear-gradient);}</style><linearGradient id="linear-gradient" y1="7" x2="8" y2="7" gradientUnits="userSpaceOnUse"><stop offset="0" stop-color="#df462b"/><stop offset="0.11" stop-color="#df5929"/><stop offset="0.38" stop-color="#df8124"/><stop offset="0.52" stop-color="#df9022"/><stop offset="0.59" stop-color="#d69124"/><stop offset="0.71" stop-color="#bc942b"/><stop offset="0.86" stop-color="#939935"/><stop offset="1" stop-color="#659e41"/></linearGradient></defs><title>s_ok</title><g id="Layer_2" data-name="Layer 2"><g id="Layer_1-2" data-name="Layer 1"><path class="cls-1" d="M7.88,7.52c-.19-.4-.72-.74-1.42-.16A4.42,4.42,0,0,1,4,8.15a4.42,4.42,0,0,1-2.46-.78C.84,6.78.31,7.12.12,7.52c-.33.7,0,1,.89,1.61a5.45,5.45,0,0,0,2.35.74l-.53.56-2,2.09a.84.84,0,0,0,0,1.15l.09.1a.75.75,0,0,0,.54.24h0A.75.75,0,0,0,2,13.76l2-2.09,2,2.09a.74.74,0,0,0,1.09,0l.09-.1a.84.84,0,0,0,0-1.15l-2-2.09-.54-.56A5.42,5.42,0,0,0,7,9.13c.85-.57,1.22-.91.89-1.61ZM4,1.8A1.7,1.7,0,0,1,5.66,3.54,1.7,1.7,0,0,1,4,5.29,1.7,1.7,0,0,1,2.34,3.54,1.7,1.7,0,0,1,4,1.8ZM4,7.09A3.46,3.46,0,0,0,7.37,3.54,3.46,3.46,0,0,0,4,0,3.46,3.46,0,0,0,.63,3.54,3.46,3.46,0,0,0,4,7.09Z"/></g></g></svg>