<svg xmlns="http://www.w3.org/2000/svg" xmlns:xlink="http://www.w3.org/1999/xlink" viewBox="0 0 15 8"><defs><style>.cls-1{fill:url(#linear-gradient);}</style><linearGradient id="linear-gradient" y1="4" x2="15" y2="4" gradientUnits="userSpaceOnUse"><stop offset="0" stop-color="#df462b"/><stop offset="0.11" stop-color="#df5929"/><stop offset="0.38" stop-color="#df8124"/><stop offset="0.52" stop-color="#df9022"/><stop offset="0.59" stop-color="#d69124"/><stop offset="0.71" stop-color="#bc942b"/><stop offset="0.86" stop-color="#939935"/><stop offset="1" stop-color="#659e41"/></linearGradient></defs><title>s_vk</title><g id="Layer_2" data-name="Layer 2"><g id="Layer_1-2" data-name="Layer 1"><path id="Фигура_1" data-name="Фигура 1" class="cls-1" d="M7.34,8h.9a.79.79,0,0,0,.41-.17.59.59,0,0,0,.12-.37s0-1.12.54-1.28,1.26,1.08,2,1.56a1.5,1.5,0,0,0,1,.28l2,0s1-.06.55-.83a6.38,6.38,0,0,0-1.49-1.61c-1.26-1.09-1.09-.91.43-2.79C14.72,1.6,15.09.9,15,.6a.92.92,0,0,0-.78-.22H11.93a.54.54,0,0,0-.29,0,.6.6,0,0,0-.2.23,11.85,11.85,0,0,1-.83,1.64C9.61,3.9,9.2,4,9,3.89c-.38-.23-.29-.93-.29-1.42C8.75.93,9,.28,8.26.12A4.15,4.15,0,0,0,7.21,0,5.24,5.24,0,0,0,5.34.2C5.08.31,4.88.58,5,.59A1,1,0,0,1,5.67.9a1.92,1.92,0,0,1,.23,1s.13,1.81-.31,2S4.86,3.74,4,2.29A13,13,0,0,1,3.16.73.64.64,0,0,0,3,.5,1,1,0,0,0,2.63.37H.48A.77.77,0,0,0,0,.52.41.41,0,0,0,0,.88a22.52,22.52,0,0,0,3.58,5.5A5.32,5.32,0,0,0,7.34,8Z"/></g></g></svg>