<svg xmlns="http://www.w3.org/2000/svg" viewBox="0 0 14 14"><defs><style>.cls-1{fill:gray;}</style></defs><title>share</title><g id="Layer_2" data-name="Layer 2"><g id="Layer_1-2" data-name="Layer 1"><polygon class="cls-1" points="11.9 0 11.9 0 11.9 0 11.9 0"/><path class="cls-1" d="M11.9,9.62h0a2.16,2.16,0,0,0-1.76.89l-5.91-3a2.09,2.09,0,0,0,0-1.19l5.93-2.86a2.13,2.13,0,0,0,1.67.9A2.17,2.17,0,0,0,14,2.24,2.17,2.17,0,0,0,11.9,0,2.2,2.2,0,0,0,9.7,2.19a2.21,2.21,0,0,0,.06.49l-6,2.88a2.12,2.12,0,0,0-1.56-.75A2.2,2.2,0,0,0,0,7,2.17,2.17,0,0,0,2.1,9.19a2.13,2.13,0,0,0,1.76-.87l5.91,3a2.24,2.24,0,0,0-.07.51A2.15,2.15,0,1,0,11.9,9.62Zm0-8.75a1.3,1.3,0,0,1,1.26,1.34,1.29,1.29,0,1,1-2.58,0A1.32,1.32,0,0,1,11.91.88ZM2.14,8.31A1.3,1.3,0,0,1,.88,7,1.32,1.32,0,0,1,2.21,5.69a1.31,1.31,0,0,1-.06,2.62Zm9.7,4.81a1.3,1.3,0,0,1-1.26-1.31,1.32,1.32,0,0,1,1.32-1.31,1.31,1.31,0,0,1-.07,2.62Z"/><polygon class="cls-1" points="11.91 0 11.9 0 11.91 0 11.91 0"/></g></g></svg>