<svg xmlns="http://www.w3.org/2000/svg" xmlns:xlink="http://www.w3.org/1999/xlink" viewBox="0 0 65 54"><defs><style>.cls-1{fill:#fff;}</style><linearGradient id="linear-gradient" y1="27" x2="65" y2="27" gradientUnits="userSpaceOnUse"><stop offset="0" stop-color="#df462b"/><stop offset="0.11" stop-color="#df5929"/><stop offset="0.38" stop-color="#df8124"/><stop offset="0.52" stop-color="#df9022"/><stop offset="0.59" stop-color="#d69124"/><stop offset="0.71" stop-color="#bc942b"/><stop offset="0.86" stop-color="#939935"/><stop offset="1" stop-color="#659e41"/></linearGradient></defs><title>step_2</title><g id="Layer_2" data-name="Layer 2"><g id="Layer_1-2" data-name="Layer 1"><path class="cls-1" d="M21.36,0a4.66,4.66,0,0,0-4.64,4.66v7.45H4.64A4.66,4.66,0,0,0,0,16.76V40A4.66,4.66,0,0,0,4.64,44.7v8.38a.93.93,0,0,0,1.6.64l9-9H43.64A4.66,4.66,0,0,0,48.29,40V32.59h1.48l9,9a.93.93,0,0,0,1.6-.64V32.59A4.66,4.66,0,0,0,65,27.93V4.66A4.66,4.66,0,0,0,60.36,0Zm0,1.86h39a2.76,2.76,0,0,1,2.79,2.79V27.93a2.76,2.76,0,0,1-2.79,2.79h-.93a.93.93,0,0,0-.93.93v7L50.81,31a.93.93,0,0,0-.67-.26H21.36a2.76,2.76,0,0,1-2.79-2.79V4.66A2.76,2.76,0,0,1,21.36,1.86ZM4.64,14H16.71v14a4.66,4.66,0,0,0,4.64,4.66H46.43V40a2.76,2.76,0,0,1-2.79,2.79H14.86a.93.93,0,0,0-.67.26L6.5,50.81v-7a.93.93,0,0,0-.93-.93H4.64A2.76,2.76,0,0,1,1.86,40V16.76A2.76,2.76,0,0,1,4.64,14Zm22.11,1.86a.94.94,0,0,0,.17,1.86H32.5a.93.93,0,0,0,0-1.86H26.75Zm11.14,0a.94.94,0,0,0,.17,1.86h5.57a.93.93,0,0,0,0-1.86H37.9Zm11.14,0a.94.94,0,0,0,.17,1.86h5.57a.93.93,0,0,0,0-1.86H49Z"/></g></g></svg>