<svg xmlns="http://www.w3.org/2000/svg" xmlns:xlink="http://www.w3.org/1999/xlink" viewBox="0 0 49 52"><defs><style>.cls-1{fill:#fff;}</style><linearGradient id="linear-gradient" y1="26" x2="49" y2="26" gradientUnits="userSpaceOnUse"><stop offset="0" stop-color="#df462b"/><stop offset="0.11" stop-color="#df5929"/><stop offset="0.38" stop-color="#df8124"/><stop offset="0.52" stop-color="#df9022"/><stop offset="0.59" stop-color="#d69124"/><stop offset="0.71" stop-color="#bc942b"/><stop offset="0.86" stop-color="#939935"/><stop offset="1" stop-color="#659e41"/></linearGradient></defs><title>step_1</title><g id="Layer_2" data-name="Layer 2"><g id="Layer_1-2" data-name="Layer 1"><path class="cls-1" d="M7.76,0A3.73,3.73,0,0,0,4,3.71V4L.25,7.91c-.12.12-.18.2-.18.25l0,.09a.65.65,0,0,0-.06.3V24.09A13.61,13.61,0,0,0,12.32,37.76h.17v.17C12.81,47.27,17.34,52,26,52c12.22,0,18.94-6.27,18.94-17.65V24l.15,0A5.06,5.06,0,0,0,49,19,5.13,5.13,0,1,0,42.75,24l.15,0V34.42c0,13-9.25,15.74-17,15.74-5.21,0-11.22-1.38-11.54-12.13v-.18l.18,0A13.55,13.55,0,0,0,26.85,24.16V8.62a.77.77,0,0,0,0-.25l0,0A1.68,1.68,0,0,0,26.6,8L22.76,4.18V3.87A3.74,3.74,0,1,0,19,7.58a4,4,0,0,0,2.8-1.25L22,6.2l3,2.95V24.24A11.73,11.73,0,0,1,24.3,28l0,.13H2.52l0-.13a11.73,11.73,0,0,1-.63-3.74V9l3-3L5,6.19A3.82,3.82,0,0,0,7.76,7.43,3.71,3.71,0,1,0,7.76,0Zm33,19a3.16,3.16,0,0,1,3.2-3.18A3.18,3.18,0,1,1,40.74,19ZM19.1,5.51a1.81,1.81,0,0,1-1.81-1.8,1.81,1.81,0,0,1,3.63,0A1.81,1.81,0,0,1,19.1,5.51Zm4.35,24.35-.17.29a11.64,11.64,0,0,1-9.89,5.76A11.64,11.64,0,0,1,3.5,30.16l-.17-.29ZM7.76,5.59a1.77,1.77,0,0,1-1.81-1.8,1.81,1.81,0,0,1,3.63,0A1.77,1.77,0,0,1,7.76,5.59Z"/></g></g></svg>