<svg xmlns="http://www.w3.org/2000/svg" xmlns:xlink="http://www.w3.org/1999/xlink" viewBox="0 0 57.5 57.5"><defs><style>.cls-1{fill:#fff;}.cls-2{fill:#fff;}.cls-3{fill:#fff;}.cls-4{fill:#fff;}.cls-5{fill:#fff;}.cls-6{fill:#fff;}</style><linearGradient id="linear-gradient" x1="21.8" y1="6.84" x2="23.73" y2="6.84" gradientUnits="userSpaceOnUse"><stop offset="0" stop-color="#df462b"/><stop offset="0.11" stop-color="#df5929"/><stop offset="0.38" stop-color="#df8124"/><stop offset="0.52" stop-color="#df9022"/><stop offset="0.59" stop-color="#d69124"/><stop offset="0.71" stop-color="#bc942b"/><stop offset="0.86" stop-color="#939935"/><stop offset="1" stop-color="#659e41"/></linearGradient><linearGradient id="linear-gradient-2" x1="0" y1="22.48" x2="13.72" y2="22.48" xlink:href="#linear-gradient"/><linearGradient id="linear-gradient-3" x1="9.01" y1="11.68" x2="14.72" y2="11.68" xlink:href="#linear-gradient"/><linearGradient id="linear-gradient-4" x1="30.52" y1="11.76" x2="36.24" y2="11.76" xlink:href="#linear-gradient"/><linearGradient id="linear-gradient-5" x1="8.86" y1="33.34" x2="14.58" y2="33.34" xlink:href="#linear-gradient"/><linearGradient id="linear-gradient-6" x1="20.84" y1="39.14" x2="57.5" y2="39.14" xlink:href="#linear-gradient"/></defs><title>step_3</title><g id="Layer_2" data-name="Layer 2"><g id="Layer_1-2" data-name="Layer 1"><path class="cls-1" d="M22.76,13.68a.92.92,0,0,0,1-1V1A1,1,0,0,0,21.8,1V12.72A.92.92,0,0,0,22.76,13.68Z"/><path class="cls-2" d="M13.72,22.48a.92.92,0,0,0-1-1H1a.92.92,0,0,0-1,1,1,1,0,0,0,1,1H12.76A.92.92,0,0,0,13.72,22.48Z"/><path class="cls-3" d="M10.65,9.12a.94.94,0,0,0-1.35,0,.94.94,0,0,0,0,1.35l3.79,3.78a.94.94,0,0,0,1.35,0,.94.94,0,0,0,0-1.35Z"/><path class="cls-4" d="M31.48,14.61a.9.9,0,0,0,.68-.29l3.79-3.78a.94.94,0,0,0,0-1.35.94.94,0,0,0-1.35,0L30.81,13a.94.94,0,0,0,0,1.35A1,1,0,0,0,31.48,14.61Z"/><path class="cls-5" d="M12.94,30.78,9.15,34.56a.94.94,0,0,0,0,1.35.94.94,0,0,0,1.35,0l3.79-3.78a.94.94,0,0,0,0-1.35A.94.94,0,0,0,12.94,30.78Z"/><path class="cls-6" d="M56,49.09,42.77,35.87,52.18,31a.84.84,0,0,0,.5-.94,1,1,0,0,0-.68-.88l-29.86-8.4a1,1,0,0,0-1,.27.93.93,0,0,0-.28,1L29.1,52a.93.93,0,0,0,.89.69,1.13,1.13,0,0,0,.94-.49l4.92-9.39L49.1,56.07a4.94,4.94,0,0,0,3.46,1.43A4.77,4.77,0,0,0,56,56.07a4.88,4.88,0,0,0,0-7ZM40.7,34.78a.78.78,0,0,0-.53.74,1.42,1.42,0,0,0,.29.82L54.68,50.52a3,3,0,0,1,.89,2.17,2.82,2.82,0,0,1-.89,2h0a3.09,3.09,0,0,1-2.18.89,2.84,2.84,0,0,1-2-.89L36.23,40.54a.9.9,0,0,0-.68-.29h-.14a.77.77,0,0,0-.72.49l-4.35,8.34-7.15-26L49.1,30.46Z"/></g></g></svg>