<?xml version="1.0" encoding="utf-8"?>
<!-- Generator: Adobe Illustrator 19.0.1, SVG Export Plug-In . SVG Version: 6.00 Build 0)  -->
<svg version="1.1" id="Слой_1" xmlns="http://www.w3.org/2000/svg" xmlns:xlink="http://www.w3.org/1999/xlink" x="0px" y="0px"
	 viewBox="0 0 401.3 180.8" style="enable-background:new 0 0 401.3 180.8;" xml:space="preserve">
<style type="text/css">
	.st0{clip-path:url(#SVGID_2_);fill:none;stroke:#B3D07A;stroke-width:0.728;stroke-miterlimit:10;}
</style>
<g>
	<defs>
		<rect id="SVGID_1_" y="0.7" width="402.9" height="207.2"/>
	</defs>
	<clipPath id="SVGID_2_">
		<use xlink:href="#SVGID_1_"  style="overflow:visible;"/>
	</clipPath>
	<path class="st0" d="M366.2,121.5c7.1,0,12.6,5.8,18.3,12.9c-5.7,7.1-11.2,12.9-18.3,12.9"/>
	<path class="st0" d="M402.9,121.5c-7.1,0-12.6,5.8-18.3,12.9c5.7,7.1,11.2,12.9,18.3,12.9"/>
	<path class="st0" d="M329.6,121.5c7.1,0,12.6,5.8,18.3,12.9c-5.7,7.1-11.2,12.9-18.3,12.9"/>
	<path class="st0" d="M366.2,121.5c-7.1,0-12.6,5.8-18.3,12.9c5.7,7.1,11.2,12.9,18.3,12.9"/>
	<path class="st0" d="M293,121.5c7.1,0,12.6,5.8,18.3,12.9c-5.7,7.1-11.2,12.9-18.3,12.9"/>
	<path class="st0" d="M329.6,121.5c-7.1,0-12.6,5.8-18.3,12.9c5.7,7.1,11.2,12.9,18.3,12.9"/>
	<path class="st0" d="M256.3,121.5c7.1,0,12.6,5.8,18.3,12.9c-5.7,7.1-11.2,12.9-18.3,12.9"/>
	<path class="st0" d="M293,121.5c-7.1,0-12.6,5.8-18.3,12.9c5.7,7.1,11.2,12.9,18.3,12.9"/>
	<path class="st0" d="M219.7,121.5c7.1,0,12.6,5.8,18.3,12.9c-5.7,7.1-11.2,12.9-18.3,12.9"/>
	<path class="st0" d="M256.3,121.5c-7.1,0-12.6,5.8-18.3,12.9c5.7,7.1,11.2,12.9,18.3,12.9"/>
	<path class="st0" d="M183.2,121.5c7.1,0,12.6,5.8,18.3,12.9c-5.7,7.1-11.2,12.9-18.3,12.9"/>
	<path class="st0" d="M219.9,121.5c-7.1,0-12.6,5.8-18.3,12.9c5.7,7.1,11.2,12.9,18.3,12.9"/>
	<path class="st0" d="M146.6,121.5c7.1,0,12.6,5.8,18.3,12.9c-5.7,7.1-11.2,12.9-18.3,12.9"/>
	<path class="st0" d="M183.2,121.5c-7.1,0-12.6,5.8-18.3,12.9c5.7,7.1,11.2,12.9,18.3,12.9"/>
	<path class="st0" d="M109.9,121.5c7.1,0,12.6,5.8,18.3,12.9c-5.7,7.1-11.2,12.9-18.3,12.9"/>
	<path class="st0" d="M146.6,121.5c-7.1,0-12.6,5.8-18.3,12.9c5.7,7.1,11.2,12.9,18.3,12.9"/>
	<path class="st0" d="M73.3,121.5c7.1,0,12.6,5.8,18.3,12.9c-5.7,7.1-11.2,12.9-18.3,12.9"/>
	<path class="st0" d="M109.9,121.5c-7.1,0-12.6,5.8-18.3,12.9c5.7,7.1,11.2,12.9,18.3,12.9"/>
	<path class="st0" d="M36.6,121.5c7.1,0,12.6,5.8,18.3,12.9c-5.7,7.1-11.2,12.9-18.3,12.9"/>
	<path class="st0" d="M73.3,121.5c-7.1,0-12.6,5.8-18.3,12.9c5.7,7.1,11.2,12.9,18.3,12.9"/>
	<path class="st0" d="M0,121.5c7.1,0,12.6,5.8,18.3,12.9c-5.7,7.1-11.2,12.9-18.3,12.9"/>
	<path class="st0" d="M36.6,121.5c-7.1,0-12.6,5.8-18.3,12.9c5.7,7.1,11.2,12.9,18.3,12.9"/>
	<path class="st0" d="M366.2,151.6c7.1,0,12.6,5.8,18.3,12.9c-5.7,7.1-11.2,12.9-18.3,12.9"/>
	<path class="st0" d="M402.9,151.6c-7.1,0-12.6,5.8-18.3,12.9c5.7,7.1,11.2,12.9,18.3,12.9"/>
	<path class="st0" d="M329.6,151.6c7.1,0,12.6,5.8,18.3,12.9c-5.7,7.1-11.2,12.9-18.3,12.9"/>
	<path class="st0" d="M366.2,151.6c-7.1,0-12.6,5.8-18.3,12.9c5.7,7.1,11.2,12.9,18.3,12.9"/>
	<path class="st0" d="M293,151.6c7.1,0,12.6,5.8,18.3,12.9c-5.7,7.1-11.2,12.9-18.3,12.9"/>
	<path class="st0" d="M329.6,151.6c-7.1,0-12.6,5.8-18.3,12.9c5.7,7.1,11.2,12.9,18.3,12.9"/>
	<path class="st0" d="M256.3,151.6c7.1,0,12.6,5.8,18.3,12.9c-5.7,7.1-11.2,12.9-18.3,12.9"/>
	<path class="st0" d="M293,151.6c-7.1,0-12.6,5.8-18.3,12.9c5.7,7.1,11.2,12.9,18.3,12.9"/>
	<path class="st0" d="M219.7,151.6c7.1,0,12.6,5.8,18.3,12.9c-5.7,7.1-11.2,12.9-18.3,12.9"/>
	<path class="st0" d="M256.3,151.6c-7.1,0-12.6,5.8-18.3,12.9c5.7,7.1,11.2,12.9,18.3,12.9"/>
	<path class="st0" d="M183.2,151.6c7.1,0,12.6,5.8,18.3,12.9c-5.7,7.1-11.2,12.9-18.3,12.9"/>
	<path class="st0" d="M219.9,151.6c-7.1,0-12.6,5.8-18.3,12.9c5.7,7.1,11.2,12.9,18.3,12.9"/>
	<path class="st0" d="M146.6,151.6c7.1,0,12.6,5.8,18.3,12.9c-5.7,7.1-11.2,12.9-18.3,12.9"/>
	<path class="st0" d="M183.2,151.6c-7.1,0-12.6,5.8-18.3,12.9c5.7,7.1,11.2,12.9,18.3,12.9"/>
	<path class="st0" d="M109.9,151.6c7.1,0,12.6,5.8,18.3,12.9c-5.7,7.1-11.2,12.9-18.3,12.9"/>
	<path class="st0" d="M146.6,151.6c-7.1,0-12.6,5.8-18.3,12.9c5.7,7.1,11.2,12.9,18.3,12.9"/>
	<path class="st0" d="M73.3,151.6c7.1,0,12.6,5.8,18.3,12.9c-5.7,7.1-11.2,12.9-18.3,12.9"/>
	<path class="st0" d="M109.9,151.6c-7.1,0-12.6,5.8-18.3,12.9c5.7,7.1,11.2,12.9,18.3,12.9"/>
	<path class="st0" d="M36.6,151.6c7.1,0,12.6,5.8,18.3,12.9c-5.7,7.1-11.2,12.9-18.3,12.9"/>
	<path class="st0" d="M73.3,151.6c-7.1,0-12.6,5.8-18.3,12.9c5.7,7.1,11.2,12.9,18.3,12.9"/>
	<path class="st0" d="M0,151.6c7.1,0,12.6,5.8,18.3,12.9c-5.7,7.1-11.2,12.9-18.3,12.9"/>
	<path class="st0" d="M36.6,151.6c-7.1,0-12.6,5.8-18.3,12.9c5.7,7.1,11.2,12.9,18.3,12.9"/>
	<path class="st0" d="M366.2,61.2c7.1,0,12.6,5.8,18.3,12.9c-5.7,7.1-11.2,12.9-18.3,12.9"/>
	<path class="st0" d="M402.9,61.2c-7.1,0-12.6,5.8-18.3,12.9c5.7,7.1,11.2,12.9,18.3,12.9"/>
	<path class="st0" d="M329.6,61.2c7.1,0,12.6,5.8,18.3,12.9c-5.7,7.1-11.2,12.9-18.3,12.9"/>
	<path class="st0" d="M366.2,61.2c-7.1,0-12.6,5.8-18.3,12.9c5.7,7.1,11.2,12.9,18.3,12.9"/>
	<path class="st0" d="M293,61.2c7.1,0,12.6,5.8,18.3,12.9C305.6,81.2,300.1,87,293,87"/>
	<path class="st0" d="M329.6,61.2c-7.1,0-12.6,5.8-18.3,12.9C317,81.2,322.5,87,329.6,87"/>
	<path class="st0" d="M256.3,61.2c7.1,0,12.6,5.8,18.3,12.9C269,81.2,263.4,87,256.3,87"/>
	<path class="st0" d="M293,61.2c-7.1,0-12.6,5.8-18.3,12.9C280.3,81.2,285.8,87,293,87"/>
	<path class="st0" d="M219.7,61.2c7.1,0,12.6,5.8,18.3,12.9c-5.7,7.1-11.2,12.9-18.3,12.9"/>
	<path class="st0" d="M256.3,61.2c-7.1,0-12.6,5.8-18.3,12.9c5.7,7.1,11.2,12.9,18.3,12.9"/>
	<path class="st0" d="M183.2,61.2c7.1,0,12.6,5.8,18.3,12.9c-5.7,7.1-11.2,12.9-18.3,12.9"/>
	<path class="st0" d="M219.9,61.2c-7.1,0-12.6,5.8-18.3,12.9c5.7,7.1,11.2,12.9,18.3,12.9"/>
	<path class="st0" d="M146.6,61.2c7.1,0,12.6,5.8,18.3,12.9c-5.7,7.1-11.2,12.9-18.3,12.9"/>
	<path class="st0" d="M183.2,61.2c-7.1,0-12.6,5.8-18.3,12.9c5.7,7.1,11.2,12.9,18.3,12.9"/>
	<path class="st0" d="M109.9,61.2c7.1,0,12.6,5.8,18.3,12.9c-5.7,7.1-11.2,12.9-18.3,12.9"/>
	<path class="st0" d="M146.6,61.2c-7.1,0-12.6,5.8-18.3,12.9c5.7,7.1,11.2,12.9,18.3,12.9"/>
	<path class="st0" d="M73.3,61.2c7.1,0,12.6,5.8,18.3,12.9C85.9,81.2,80.4,87,73.3,87"/>
	<path class="st0" d="M109.9,61.2c-7.1,0-12.6,5.8-18.3,12.9c5.7,7.1,11.2,12.9,18.3,12.9"/>
	<path class="st0" d="M36.6,61.2c7.1,0,12.6,5.8,18.3,12.9C49.3,81.2,43.8,87,36.6,87"/>
	<path class="st0" d="M73.3,61.2c-7.1,0-12.6,5.8-18.3,12.9C60.6,81.2,66.2,87,73.3,87"/>
	<path class="st0" d="M0,61.2c7.1,0,12.6,5.8,18.3,12.9C12.6,81.2,7.1,87,0,87"/>
	<path class="st0" d="M36.6,61.2c-7.1,0-12.6,5.8-18.3,12.9C24,81.2,29.5,87,36.6,87"/>
	<path class="st0" d="M366.2,91.3c7.1,0,12.6,5.8,18.3,12.9c-5.7,7.1-11.2,12.9-18.3,12.9"/>
	<path class="st0" d="M402.9,91.3c-7.1,0-12.6,5.8-18.3,12.9c5.7,7.1,11.2,12.9,18.3,12.9"/>
	<path class="st0" d="M329.6,91.3c7.1,0,12.6,5.8,18.3,12.9c-5.7,7.1-11.2,12.9-18.3,12.9"/>
	<path class="st0" d="M366.2,91.3c-7.1,0-12.6,5.8-18.3,12.9c5.7,7.1,11.2,12.9,18.3,12.9"/>
	<path class="st0" d="M293,91.3c7.1,0,12.6,5.8,18.3,12.9c-5.7,7.1-11.2,12.9-18.3,12.9"/>
	<path class="st0" d="M329.6,91.3c-7.1,0-12.6,5.8-18.3,12.9c5.7,7.1,11.2,12.9,18.3,12.9"/>
	<path class="st0" d="M256.3,91.3c7.1,0,12.6,5.8,18.3,12.9c-5.7,7.1-11.2,12.9-18.3,12.9"/>
	<path class="st0" d="M293,91.3c-7.1,0-12.6,5.8-18.3,12.9c5.7,7.1,11.2,12.9,18.3,12.9"/>
	<path class="st0" d="M219.7,91.3c7.1,0,12.6,5.8,18.3,12.9c-5.7,7.1-11.2,12.9-18.3,12.9"/>
	<path class="st0" d="M256.3,91.3c-7.1,0-12.6,5.8-18.3,12.9c5.7,7.1,11.2,12.9,18.3,12.9"/>
	<path class="st0" d="M183.2,91.3c7.1,0,12.6,5.8,18.3,12.9c-5.7,7.1-11.2,12.9-18.3,12.9"/>
	<path class="st0" d="M219.9,91.3c-7.1,0-12.6,5.8-18.3,12.9c5.7,7.1,11.2,12.9,18.3,12.9"/>
	<path class="st0" d="M146.6,91.3c7.1,0,12.6,5.8,18.3,12.9c-5.7,7.1-11.2,12.9-18.3,12.9"/>
	<path class="st0" d="M183.2,91.3c-7.1,0-12.6,5.8-18.3,12.9c5.7,7.1,11.2,12.9,18.3,12.9"/>
	<path class="st0" d="M109.9,91.3c7.1,0,12.6,5.8,18.3,12.9c-5.7,7.1-11.2,12.9-18.3,12.9"/>
	<path class="st0" d="M146.6,91.3c-7.1,0-12.6,5.8-18.3,12.9c5.7,7.1,11.2,12.9,18.3,12.9"/>
	<path class="st0" d="M73.3,91.3c7.1,0,12.6,5.8,18.3,12.9c-5.7,7.1-11.2,12.9-18.3,12.9"/>
	<path class="st0" d="M109.9,91.3c-7.1,0-12.6,5.8-18.3,12.9c5.7,7.1,11.2,12.9,18.3,12.9"/>
	<path class="st0" d="M36.6,91.3c7.1,0,12.6,5.8,18.3,12.9c-5.7,7.1-11.2,12.9-18.3,12.9"/>
	<path class="st0" d="M73.3,91.3c-7.1,0-12.6,5.8-18.3,12.9c5.7,7.1,11.2,12.9,18.3,12.9"/>
	<path class="st0" d="M0,91.3c7.1,0,12.6,5.8,18.3,12.9c-5.7,7.1-11.2,12.9-18.3,12.9"/>
	<path class="st0" d="M36.6,91.3c-7.1,0-12.6,5.8-18.3,12.9c5.7,7.1,11.2,12.9,18.3,12.9"/>
	<path class="st0" d="M366.2,1c7.1,0,12.6,5.8,18.3,12.9c-5.7,7.1-11.2,12.9-18.3,12.9"/>
	<path class="st0" d="M402.9,1c-7.1,0-12.6,5.8-18.3,12.9c5.7,7.1,11.2,12.9,18.3,12.9"/>
	<path class="st0" d="M329.6,1c7.1,0,12.6,5.8,18.3,12.9c-5.7,7.1-11.2,12.9-18.3,12.9"/>
	<path class="st0" d="M366.2,1c-7.1,0-12.6,5.8-18.3,12.9c5.7,7.1,11.2,12.9,18.3,12.9"/>
	<path class="st0" d="M293,1c7.1,0,12.6,5.8,18.3,12.9c-5.7,7.1-11.2,12.9-18.3,12.9"/>
	<path class="st0" d="M329.6,1c-7.1,0-12.6,5.8-18.3,12.9c5.7,7.1,11.2,12.9,18.3,12.9"/>
	<path class="st0" d="M256.3,1c7.1,0,12.6,5.8,18.3,12.9c-5.7,7.1-11.2,12.9-18.3,12.9"/>
	<path class="st0" d="M293,1c-7.1,0-12.6,5.8-18.3,12.9c5.7,7.1,11.2,12.9,18.3,12.9"/>
	<path class="st0" d="M219.7,1c7.1,0,12.6,5.8,18.3,12.9c-5.7,7.1-11.2,12.9-18.3,12.9"/>
	<path class="st0" d="M256.3,1c-7.1,0-12.6,5.8-18.3,12.9c5.7,7.1,11.2,12.9,18.3,12.9"/>
	<path class="st0" d="M183.2,1c7.1,0,12.6,5.8,18.3,12.9c-5.7,7.1-11.2,12.9-18.3,12.9"/>
	<path class="st0" d="M219.9,1c-7.1,0-12.6,5.8-18.3,12.9c5.7,7.1,11.2,12.9,18.3,12.9"/>
	<path class="st0" d="M146.6,1c7.1,0,12.6,5.8,18.3,12.9c-5.7,7.1-11.2,12.9-18.3,12.9"/>
	<path class="st0" d="M183.2,1c-7.1,0-12.6,5.8-18.3,12.9c5.7,7.1,11.2,12.9,18.3,12.9"/>
	<path class="st0" d="M109.9,1c7.1,0,12.6,5.8,18.3,12.9c-5.7,7.1-11.2,12.9-18.3,12.9"/>
	<path class="st0" d="M146.6,1c-7.1,0-12.6,5.8-18.3,12.9c5.7,7.1,11.2,12.9,18.3,12.9"/>
	<path class="st0" d="M73.3,1c7.1,0,12.6,5.8,18.3,12.9C85.9,21,80.4,26.8,73.3,26.8"/>
	<path class="st0" d="M109.9,1c-7.1,0-12.6,5.8-18.3,12.9c5.7,7.1,11.2,12.9,18.3,12.9"/>
	<path class="st0" d="M36.6,1C43.8,1,49.3,6.9,55,13.9C49.3,21,43.8,26.8,36.6,26.8"/>
	<path class="st0" d="M73.3,1C66.2,1,60.6,6.9,55,13.9c5.7,7.1,11.2,12.9,18.3,12.9"/>
	<path class="st0" d="M0,1c7.1,0,12.6,5.8,18.3,12.9C12.6,21,7.1,26.8,0,26.8"/>
	<path class="st0" d="M36.6,1C29.5,1,24,6.9,18.3,13.9C24,21,29.5,26.8,36.6,26.8"/>
	<path class="st0" d="M366.2,31.1c7.1,0,12.6,5.8,18.3,12.9c-5.7,7.1-11.2,12.9-18.3,12.9"/>
	<path class="st0" d="M402.9,31.1c-7.1,0-12.6,5.8-18.3,12.9c5.7,7.1,11.2,12.9,18.3,12.9"/>
	<path class="st0" d="M329.6,31.1c7.1,0,12.6,5.8,18.3,12.9c-5.7,7.1-11.2,12.9-18.3,12.9"/>
	<path class="st0" d="M366.2,31.1c-7.1,0-12.6,5.8-18.3,12.9c5.7,7.1,11.2,12.9,18.3,12.9"/>
	<path class="st0" d="M293,31.1c7.1,0,12.6,5.8,18.3,12.9c-5.7,7.1-11.2,12.9-18.3,12.9"/>
	<path class="st0" d="M329.6,31.1c-7.1,0-12.6,5.8-18.3,12.9c5.7,7.1,11.2,12.9,18.3,12.9"/>
	<path class="st0" d="M256.3,31.1c7.1,0,12.6,5.8,18.3,12.9c-5.7,7.1-11.2,12.9-18.3,12.9"/>
	<path class="st0" d="M293,31.1c-7.1,0-12.6,5.8-18.3,12.9c5.7,7.1,11.2,12.9,18.3,12.9"/>
	<path class="st0" d="M219.7,31.1c7.1,0,12.6,5.8,18.3,12.9c-5.7,7.1-11.2,12.9-18.3,12.9"/>
	<path class="st0" d="M256.3,31.1c-7.1,0-12.6,5.8-18.3,12.9c5.7,7.1,11.2,12.9,18.3,12.9"/>
	<path class="st0" d="M183.2,31.1c7.1,0,12.6,5.8,18.3,12.9c-5.7,7.1-11.2,12.9-18.3,12.9"/>
	<path class="st0" d="M219.9,31.1c-7.1,0-12.6,5.8-18.3,12.9c5.7,7.1,11.2,12.9,18.3,12.9"/>
	<path class="st0" d="M146.6,31.1c7.1,0,12.6,5.8,18.3,12.9c-5.7,7.1-11.2,12.9-18.3,12.9"/>
	<path class="st0" d="M183.2,31.1c-7.1,0-12.6,5.8-18.3,12.9c5.7,7.1,11.2,12.9,18.3,12.9"/>
	<path class="st0" d="M109.9,31.1c7.1,0,12.6,5.8,18.3,12.9c-5.7,7.1-11.2,12.9-18.3,12.9"/>
	<path class="st0" d="M146.6,31.1c-7.1,0-12.6,5.8-18.3,12.9c5.7,7.1,11.2,12.9,18.3,12.9"/>
	<path class="st0" d="M73.3,31.1c7.1,0,12.6,5.8,18.3,12.9c-5.7,7.1-11.2,12.9-18.3,12.9"/>
	<path class="st0" d="M109.9,31.1c-7.1,0-12.6,5.8-18.3,12.9c5.7,7.1,11.2,12.9,18.3,12.9"/>
	<path class="st0" d="M36.6,31.1C43.8,31.1,49.3,37,55,44c-5.7,7.1-11.2,12.9-18.3,12.9"/>
	<path class="st0" d="M73.3,31.1C66.2,31.1,60.6,37,55,44c5.7,7.1,11.2,12.9,18.3,12.9"/>
	<path class="st0" d="M0,31.1c7.1,0,12.6,5.8,18.3,12.9C12.6,51.1,7.1,56.9,0,56.9"/>
	<path class="st0" d="M36.6,31.1C29.5,31.1,24,37,18.3,44c5.7,7.1,11.2,12.9,18.3,12.9"/>
</g>
</svg>
