<?xml version="1.0" encoding="utf-8"?>
<!-- Generator: Adobe Illustrator 19.0.1, SVG Export Plug-In . SVG Version: 6.00 Build 0)  -->
<svg version="1.1" id="Слой_1" xmlns="http://www.w3.org/2000/svg" xmlns:xlink="http://www.w3.org/1999/xlink" x="0px" y="0px"
	 viewBox="0 0 455.7 192.2" style="enable-background:new 0 0 455.7 192.2;" xml:space="preserve">
<style type="text/css">
	.st0{clip-path:url(#SVGID_2_);fill:none;stroke:#F89F74;stroke-width:1.017;stroke-miterlimit:10;}
</style>
<g>
	<defs>
		<rect id="SVGID_1_" width="455.7" height="192.2"/>
	</defs>
	<clipPath id="SVGID_2_">
		<use xlink:href="#SVGID_1_"  style="overflow:visible;"/>
	</clipPath>
	<path class="st0" d="M429.2,47.3c0-3.4-2.8-6.1-6.2-6.1s-6.2,2.7-6.2,6.1c0,3.4,2.8,6.1,6.2,6.1S429.2,50.7,429.2,47.3z
		 M437.5,47.3c0-7.9-6.5-14.3-14.5-14.3s-14.5,6.4-14.5,14.3c0,7.9,6.5,14.3,14.5,14.3S437.5,55.2,437.5,47.3z M446.9,14.8
		c0-3.4-2.8-6.1-6.2-6.1c-3.4,0-6.2,2.7-6.2,6.1s2.8,6.1,6.2,6.1C444.2,21,446.9,18.2,446.9,14.8z M455.2,14.8
		c0-7.9-6.5-14.3-14.5-14.3c-8,0-14.5,6.4-14.5,14.3s6.5,14.3,14.5,14.3C448.7,29.2,455.2,22.7,455.2,14.8z M429.2,112.3
		c0-3.4-2.8-6.1-6.2-6.1s-6.2,2.7-6.2,6.1c0,3.4,2.8,6.1,6.2,6.1S429.2,115.7,429.2,112.3z M437.5,112.3c0-7.9-6.5-14.3-14.5-14.3
		s-14.5,6.4-14.5,14.3c0,7.9,6.5,14.3,14.5,14.3S437.5,120.2,437.5,112.3z M446.9,79.8c0-3.4-2.8-6.1-6.2-6.1
		c-3.4,0-6.2,2.7-6.2,6.1c0,3.4,2.8,6.1,6.2,6.1C444.2,86,446.9,83.2,446.9,79.8z M455.2,79.8c0-7.9-6.5-14.3-14.5-14.3
		c-8,0-14.5,6.4-14.5,14.3s6.5,14.3,14.5,14.3C448.7,94.2,455.2,87.7,455.2,79.8z M429.2,177.3c0-3.4-2.8-6.1-6.2-6.1
		s-6.2,2.7-6.2,6.1s2.8,6.1,6.2,6.1S429.2,180.7,429.2,177.3z M437.5,177.3c0-7.9-6.5-14.3-14.5-14.3s-14.5,6.4-14.5,14.3
		c0,7.9,6.5,14.3,14.5,14.3S437.5,185.2,437.5,177.3z M446.9,144.8c0-3.4-2.8-6.1-6.2-6.1c-3.4,0-6.2,2.7-6.2,6.1
		c0,3.4,2.8,6.1,6.2,6.1C444.2,151,446.9,148.2,446.9,144.8z M455.2,144.8c0-7.9-6.5-14.3-14.5-14.3c-8,0-14.5,6.4-14.5,14.3
		c0,7.9,6.5,14.3,14.5,14.3C448.7,159.1,455.2,152.7,455.2,144.8z M393.8,47.3c0-3.4-2.8-6.1-6.2-6.1c-3.4,0-6.2,2.7-6.2,6.1
		c0,3.4,2.8,6.1,6.2,6.1C391,53.5,393.8,50.7,393.8,47.3z M402,47.3c0-7.9-6.5-14.3-14.5-14.3c-8,0-14.5,6.4-14.5,14.3
		c0,7.9,6.5,14.3,14.5,14.3C395.6,61.7,402,55.2,402,47.3z M358.2,47.3c0-3.4-2.8-6.1-6.2-6.1s-6.2,2.7-6.2,6.1
		c0,3.4,2.8,6.1,6.2,6.1S358.2,50.7,358.2,47.3z M366.5,47.3c0-7.9-6.5-14.3-14.5-14.3c-8,0-14.5,6.4-14.5,14.3
		c0,7.9,6.5,14.3,14.5,14.3C360,61.7,366.5,55.2,366.5,47.3z M322.7,47.3c0-3.4-2.8-6.1-6.2-6.1c-3.4,0-6.2,2.7-6.2,6.1
		c0,3.4,2.8,6.1,6.2,6.1C320,53.5,322.7,50.7,322.7,47.3z M331,47.3c0-7.9-6.5-14.3-14.5-14.3c-8,0-14.5,6.4-14.5,14.3
		c0,7.9,6.5,14.3,14.5,14.3C324.5,61.7,331,55.2,331,47.3z M287.2,47.3c0-3.4-2.8-6.1-6.2-6.1c-3.4,0-6.2,2.7-6.2,6.1
		c0,3.4,2.8,6.1,6.2,6.1C284.4,53.5,287.2,50.7,287.2,47.3z M295.5,47.3c0-7.9-6.5-14.3-14.5-14.3c-8,0-14.5,6.4-14.5,14.3
		c0,7.9,6.5,14.3,14.5,14.3C289,61.7,295.5,55.2,295.5,47.3z M251.7,47.3c0-3.4-2.8-6.1-6.2-6.1c-3.4,0-6.2,2.7-6.2,6.1
		c0,3.4,2.8,6.1,6.2,6.1C248.9,53.5,251.7,50.7,251.7,47.3z M260,47.3c0-7.9-6.5-14.3-14.5-14.3c-8,0-14.5,6.4-14.5,14.3
		c0,7.9,6.5,14.3,14.5,14.3C253.5,61.7,260,55.2,260,47.3z M216.2,47.3c0-3.4-2.8-6.1-6.2-6.1c-3.4,0-6.2,2.7-6.2,6.1
		c0,3.4,2.8,6.1,6.2,6.1C213.4,53.5,216.2,50.7,216.2,47.3z M224.5,47.3c0-7.9-6.5-14.3-14.5-14.3c-8,0-14.5,6.4-14.5,14.3
		c0,7.9,6.5,14.3,14.5,14.3C218,61.7,224.5,55.2,224.5,47.3z M180.7,47.3c0-3.4-2.8-6.1-6.2-6.1c-3.4,0-6.2,2.7-6.2,6.1
		c0,3.4,2.8,6.1,6.2,6.1C177.9,53.5,180.7,50.7,180.7,47.3z M188.9,47.3c0-7.9-6.5-14.3-14.5-14.3c-8,0-14.5,6.4-14.5,14.3
		c0,7.9,6.5,14.3,14.5,14.3C182.5,61.7,188.9,55.2,188.9,47.3z M145.2,47.3c0-3.4-2.8-6.1-6.2-6.1c-3.4,0-6.2,2.7-6.2,6.1
		c0,3.4,2.8,6.1,6.2,6.1C142.4,53.5,145.2,50.7,145.2,47.3z M153.4,47.3c0-7.9-6.5-14.3-14.5-14.3c-8,0-14.5,6.4-14.5,14.3
		c0,7.9,6.5,14.3,14.5,14.3C147,61.7,153.4,55.2,153.4,47.3z M411.5,14.8c0-3.4-2.8-6.1-6.2-6.1s-6.2,2.7-6.2,6.1s2.8,6.1,6.2,6.1
		S411.5,18.2,411.5,14.8z M419.8,14.8c0-7.9-6.5-14.3-14.5-14.3c-8,0-14.5,6.4-14.5,14.3s6.5,14.3,14.5,14.3
		C413.3,29.2,419.8,22.7,419.8,14.8z M376,14.8c0-3.4-2.8-6.1-6.2-6.1c-3.4,0-6.2,2.7-6.2,6.1s2.8,6.1,6.2,6.1
		C373.2,21,376,18.2,376,14.8z M384.3,14.8c0-7.9-6.5-14.3-14.5-14.3s-14.5,6.4-14.5,14.3s6.5,14.3,14.5,14.3S384.3,22.7,384.3,14.8
		z M340.5,14.8c0-3.4-2.8-6.1-6.2-6.1c-3.4,0-6.2,2.7-6.2,6.1s2.8,6.1,6.2,6.1C337.7,21,340.5,18.2,340.5,14.8z M348.8,14.8
		c0-7.9-6.5-14.3-14.5-14.3c-8,0-14.5,6.4-14.5,14.3s6.5,14.3,14.5,14.3C342.3,29.2,348.8,22.7,348.8,14.8z M305,14.8
		c0-3.4-2.8-6.1-6.2-6.1c-3.4,0-6.2,2.7-6.2,6.1s2.8,6.1,6.2,6.1C302.2,21,305,18.2,305,14.8z M313.2,14.8c0-7.9-6.5-14.3-14.5-14.3
		c-8,0-14.5,6.4-14.5,14.3s6.5,14.3,14.5,14.3C306.8,29.2,313.2,22.7,313.2,14.8z M269.5,14.8c0-3.4-2.8-6.1-6.2-6.1
		s-6.2,2.7-6.2,6.1s2.8,6.1,6.2,6.1S269.5,18.2,269.5,14.8z M277.7,14.8c0-7.9-6.5-14.3-14.5-14.3c-8,0-14.5,6.4-14.5,14.3
		s6.5,14.3,14.5,14.3C271.3,29.2,277.7,22.7,277.7,14.8z M233.9,14.8c0-3.4-2.8-6.1-6.2-6.1c-3.4,0-6.2,2.7-6.2,6.1s2.8,6.1,6.2,6.1
		C231.2,21,233.9,18.2,233.9,14.8z M242.2,14.8c0-7.9-6.5-14.3-14.5-14.3c-8,0-14.5,6.4-14.5,14.3s6.5,14.3,14.5,14.3
		C235.7,29.2,242.2,22.7,242.2,14.8z M198.4,14.8c0-3.4-2.8-6.1-6.2-6.1s-6.2,2.7-6.2,6.1s2.8,6.1,6.2,6.1S198.4,18.2,198.4,14.8z
		 M206.7,14.8c0-7.9-6.5-14.3-14.5-14.3c-8,0-14.5,6.4-14.5,14.3s6.5,14.3,14.5,14.3C200.2,29.2,206.7,22.7,206.7,14.8z M162.9,14.8
		c0-3.4-2.8-6.1-6.2-6.1c-3.4,0-6.2,2.7-6.2,6.1s2.8,6.1,6.2,6.1C160.1,21,162.9,18.2,162.9,14.8z M171.2,14.8
		c0-7.9-6.5-14.3-14.5-14.3c-8,0-14.5,6.4-14.5,14.3s6.5,14.3,14.5,14.3C164.7,29.2,171.2,22.7,171.2,14.8z M393.8,112.3
		c0-3.4-2.8-6.1-6.2-6.1c-3.4,0-6.2,2.7-6.2,6.1c0,3.4,2.8,6.1,6.2,6.1C391,118.5,393.8,115.7,393.8,112.3z M402,112.3
		c0-7.9-6.5-14.3-14.5-14.3c-8,0-14.5,6.4-14.5,14.3c0,7.9,6.5,14.3,14.5,14.3C395.6,126.7,402,120.2,402,112.3z M358.2,112.3
		c0-3.4-2.8-6.1-6.2-6.1s-6.2,2.7-6.2,6.1c0,3.4,2.8,6.1,6.2,6.1S358.2,115.7,358.2,112.3z M366.5,112.3c0-7.9-6.5-14.3-14.5-14.3
		c-8,0-14.5,6.4-14.5,14.3c0,7.9,6.5,14.3,14.5,14.3C360,126.7,366.5,120.2,366.5,112.3z M322.7,112.3c0-3.4-2.8-6.1-6.2-6.1
		c-3.4,0-6.2,2.7-6.2,6.1c0,3.4,2.8,6.1,6.2,6.1C320,118.5,322.7,115.7,322.7,112.3z M331,112.3c0-7.9-6.5-14.3-14.5-14.3
		c-8,0-14.5,6.4-14.5,14.3c0,7.9,6.5,14.3,14.5,14.3C324.5,126.7,331,120.2,331,112.3z M287.2,112.3c0-3.4-2.8-6.1-6.2-6.1
		c-3.4,0-6.2,2.7-6.2,6.1c0,3.4,2.8,6.1,6.2,6.1C284.4,118.5,287.2,115.7,287.2,112.3z M295.5,112.3c0-7.9-6.5-14.3-14.5-14.3
		c-8,0-14.5,6.4-14.5,14.3c0,7.9,6.5,14.3,14.5,14.3C289,126.7,295.5,120.2,295.5,112.3z M251.7,112.3c0-3.4-2.8-6.1-6.2-6.1
		c-3.4,0-6.2,2.7-6.2,6.1c0,3.4,2.8,6.1,6.2,6.1C248.9,118.5,251.7,115.7,251.7,112.3z M260,112.3c0-7.9-6.5-14.3-14.5-14.3
		c-8,0-14.5,6.4-14.5,14.3c0,7.9,6.5,14.3,14.5,14.3C253.5,126.7,260,120.2,260,112.3z M216.2,112.3c0-3.4-2.8-6.1-6.2-6.1
		c-3.4,0-6.2,2.7-6.2,6.1c0,3.4,2.8,6.1,6.2,6.1C213.4,118.5,216.2,115.7,216.2,112.3z M224.5,112.3c0-7.9-6.5-14.3-14.5-14.3
		c-8,0-14.5,6.4-14.5,14.3c0,7.9,6.5,14.3,14.5,14.3C218,126.7,224.5,120.2,224.5,112.3z M180.7,112.3c0-3.4-2.8-6.1-6.2-6.1
		c-3.4,0-6.2,2.7-6.2,6.1c0,3.4,2.8,6.1,6.2,6.1C177.9,118.5,180.7,115.7,180.7,112.3z M188.9,112.3c0-7.9-6.5-14.3-14.5-14.3
		c-8,0-14.5,6.4-14.5,14.3c0,7.9,6.5,14.3,14.5,14.3C182.5,126.7,188.9,120.2,188.9,112.3z M145.2,112.3c0-3.4-2.8-6.1-6.2-6.1
		c-3.4,0-6.2,2.7-6.2,6.1c0,3.4,2.8,6.1,6.2,6.1C142.4,118.5,145.2,115.7,145.2,112.3z M153.4,112.3c0-7.9-6.5-14.3-14.5-14.3
		c-8,0-14.5,6.4-14.5,14.3c0,7.9,6.5,14.3,14.5,14.3C147,126.7,153.4,120.2,153.4,112.3z M411.5,79.8c0-3.4-2.8-6.1-6.2-6.1
		s-6.2,2.7-6.2,6.1c0,3.4,2.8,6.1,6.2,6.1S411.5,83.2,411.5,79.8z M419.8,79.8c0-7.9-6.5-14.3-14.5-14.3c-8,0-14.5,6.4-14.5,14.3
		s6.5,14.3,14.5,14.3C413.3,94.2,419.8,87.7,419.8,79.8z M376,79.8c0-3.4-2.8-6.1-6.2-6.1c-3.4,0-6.2,2.7-6.2,6.1
		c0,3.4,2.8,6.1,6.2,6.1C373.2,86,376,83.2,376,79.8z M384.3,79.8c0-7.9-6.5-14.3-14.5-14.3s-14.5,6.4-14.5,14.3s6.5,14.3,14.5,14.3
		S384.3,87.7,384.3,79.8z M340.5,79.8c0-3.4-2.8-6.1-6.2-6.1c-3.4,0-6.2,2.7-6.2,6.1c0,3.4,2.8,6.1,6.2,6.1
		C337.7,86,340.5,83.2,340.5,79.8z M348.8,79.8c0-7.9-6.5-14.3-14.5-14.3c-8,0-14.5,6.4-14.5,14.3s6.5,14.3,14.5,14.3
		C342.3,94.2,348.8,87.7,348.8,79.8z M305,79.8c0-3.4-2.8-6.1-6.2-6.1c-3.4,0-6.2,2.7-6.2,6.1c0,3.4,2.8,6.1,6.2,6.1
		C302.2,86,305,83.2,305,79.8z M313.2,79.8c0-7.9-6.5-14.3-14.5-14.3c-8,0-14.5,6.4-14.5,14.3s6.5,14.3,14.5,14.3
		C306.8,94.2,313.2,87.7,313.2,79.8z M269.5,79.8c0-3.4-2.8-6.1-6.2-6.1s-6.2,2.7-6.2,6.1c0,3.4,2.8,6.1,6.2,6.1
		S269.5,83.2,269.5,79.8z M277.7,79.8c0-7.9-6.5-14.3-14.5-14.3c-8,0-14.5,6.4-14.5,14.3s6.5,14.3,14.5,14.3
		C271.3,94.2,277.7,87.7,277.7,79.8z M233.9,79.8c0-3.4-2.8-6.1-6.2-6.1c-3.4,0-6.2,2.7-6.2,6.1c0,3.4,2.8,6.1,6.2,6.1
		C231.2,86,233.9,83.2,233.9,79.8z M242.2,79.8c0-7.9-6.5-14.3-14.5-14.3c-8,0-14.5,6.4-14.5,14.3s6.5,14.3,14.5,14.3
		C235.7,94.2,242.2,87.7,242.2,79.8z M198.4,79.8c0-3.4-2.8-6.1-6.2-6.1s-6.2,2.7-6.2,6.1c0,3.4,2.8,6.1,6.2,6.1
		S198.4,83.2,198.4,79.8z M206.7,79.8c0-7.9-6.5-14.3-14.5-14.3c-8,0-14.5,6.4-14.5,14.3s6.5,14.3,14.5,14.3
		C200.2,94.2,206.7,87.7,206.7,79.8z M162.9,79.8c0-3.4-2.8-6.1-6.2-6.1c-3.4,0-6.2,2.7-6.2,6.1c0,3.4,2.8,6.1,6.2,6.1
		C160.1,86,162.9,83.2,162.9,79.8z M171.2,79.8c0-7.9-6.5-14.3-14.5-14.3c-8,0-14.5,6.4-14.5,14.3s6.5,14.3,14.5,14.3
		C164.7,94.2,171.2,87.7,171.2,79.8z M393.8,177.3c0-3.4-2.8-6.1-6.2-6.1c-3.4,0-6.2,2.7-6.2,6.1s2.8,6.1,6.2,6.1
		C391,183.5,393.8,180.7,393.8,177.3z M402,177.3c0-7.9-6.5-14.3-14.5-14.3c-8,0-14.5,6.4-14.5,14.3c0,7.9,6.5,14.3,14.5,14.3
		C395.6,191.6,402,185.2,402,177.3z M358.2,177.3c0-3.4-2.8-6.1-6.2-6.1s-6.2,2.7-6.2,6.1s2.8,6.1,6.2,6.1S358.2,180.7,358.2,177.3z
		 M366.5,177.3c0-7.9-6.5-14.3-14.5-14.3c-8,0-14.5,6.4-14.5,14.3c0,7.9,6.5,14.3,14.5,14.3C360,191.6,366.5,185.2,366.5,177.3z
		 M322.7,177.3c0-3.4-2.8-6.1-6.2-6.1c-3.4,0-6.2,2.7-6.2,6.1s2.8,6.1,6.2,6.1C320,183.5,322.7,180.7,322.7,177.3z M331,177.3
		c0-7.9-6.5-14.3-14.5-14.3c-8,0-14.5,6.4-14.5,14.3c0,7.9,6.5,14.3,14.5,14.3C324.5,191.6,331,185.2,331,177.3z M287.2,177.3
		c0-3.4-2.8-6.1-6.2-6.1c-3.4,0-6.2,2.7-6.2,6.1s2.8,6.1,6.2,6.1C284.4,183.5,287.2,180.7,287.2,177.3z M295.5,177.3
		c0-7.9-6.5-14.3-14.5-14.3c-8,0-14.5,6.4-14.5,14.3c0,7.9,6.5,14.3,14.5,14.3C289,191.6,295.5,185.2,295.5,177.3z M251.7,177.3
		c0-3.4-2.8-6.1-6.2-6.1c-3.4,0-6.2,2.7-6.2,6.1s2.8,6.1,6.2,6.1C248.9,183.5,251.7,180.7,251.7,177.3z M260,177.3
		c0-7.9-6.5-14.3-14.5-14.3c-8,0-14.5,6.4-14.5,14.3c0,7.9,6.5,14.3,14.5,14.3C253.5,191.6,260,185.2,260,177.3z M216.2,177.3
		c0-3.4-2.8-6.1-6.2-6.1c-3.4,0-6.2,2.7-6.2,6.1s2.8,6.1,6.2,6.1C213.4,183.5,216.2,180.7,216.2,177.3z M224.5,177.3
		c0-7.9-6.5-14.3-14.5-14.3c-8,0-14.5,6.4-14.5,14.3c0,7.9,6.5,14.3,14.5,14.3C218,191.6,224.5,185.2,224.5,177.3z M180.7,177.3
		c0-3.4-2.8-6.1-6.2-6.1c-3.4,0-6.2,2.7-6.2,6.1s2.8,6.1,6.2,6.1C177.9,183.5,180.7,180.7,180.7,177.3z M188.9,177.3
		c0-7.9-6.5-14.3-14.5-14.3c-8,0-14.5,6.4-14.5,14.3c0,7.9,6.5,14.3,14.5,14.3C182.5,191.6,188.9,185.2,188.9,177.3z M145.2,177.3
		c0-3.4-2.8-6.1-6.2-6.1c-3.4,0-6.2,2.7-6.2,6.1s2.8,6.1,6.2,6.1C142.4,183.5,145.2,180.7,145.2,177.3z M153.4,177.3
		c0-7.9-6.5-14.3-14.5-14.3c-8,0-14.5,6.4-14.5,14.3c0,7.9,6.5,14.3,14.5,14.3C147,191.6,153.4,185.2,153.4,177.3z M411.5,144.8
		c0-3.4-2.8-6.1-6.2-6.1s-6.2,2.7-6.2,6.1c0,3.4,2.8,6.1,6.2,6.1S411.5,148.2,411.5,144.8z M419.8,144.8c0-7.9-6.5-14.3-14.5-14.3
		c-8,0-14.5,6.4-14.5,14.3c0,7.9,6.5,14.3,14.5,14.3C413.3,159.1,419.8,152.7,419.8,144.8z M376,144.8c0-3.4-2.8-6.1-6.2-6.1
		c-3.4,0-6.2,2.7-6.2,6.1c0,3.4,2.8,6.1,6.2,6.1C373.2,151,376,148.2,376,144.8z M384.3,144.8c0-7.9-6.5-14.3-14.5-14.3
		s-14.5,6.4-14.5,14.3c0,7.9,6.5,14.3,14.5,14.3S384.3,152.7,384.3,144.8z M340.5,144.8c0-3.4-2.8-6.1-6.2-6.1
		c-3.4,0-6.2,2.7-6.2,6.1c0,3.4,2.8,6.1,6.2,6.1C337.7,151,340.5,148.2,340.5,144.8z M348.8,144.8c0-7.9-6.5-14.3-14.5-14.3
		c-8,0-14.5,6.4-14.5,14.3c0,7.9,6.5,14.3,14.5,14.3C342.3,159.1,348.8,152.7,348.8,144.8z M305,144.8c0-3.4-2.8-6.1-6.2-6.1
		c-3.4,0-6.2,2.7-6.2,6.1c0,3.4,2.8,6.1,6.2,6.1C302.2,151,305,148.2,305,144.8z M313.2,144.8c0-7.9-6.5-14.3-14.5-14.3
		c-8,0-14.5,6.4-14.5,14.3c0,7.9,6.5,14.3,14.5,14.3C306.8,159.1,313.2,152.7,313.2,144.8z M269.5,144.8c0-3.4-2.8-6.1-6.2-6.1
		s-6.2,2.7-6.2,6.1c0,3.4,2.8,6.1,6.2,6.1S269.5,148.2,269.5,144.8z M277.7,144.8c0-7.9-6.5-14.3-14.5-14.3c-8,0-14.5,6.4-14.5,14.3
		c0,7.9,6.5,14.3,14.5,14.3C271.3,159.1,277.7,152.7,277.7,144.8z M233.9,144.8c0-3.4-2.8-6.1-6.2-6.1c-3.4,0-6.2,2.7-6.2,6.1
		c0,3.4,2.8,6.1,6.2,6.1C231.2,151,233.9,148.2,233.9,144.8z M242.2,144.8c0-7.9-6.5-14.3-14.5-14.3c-8,0-14.5,6.4-14.5,14.3
		c0,7.9,6.5,14.3,14.5,14.3C235.7,159.1,242.2,152.7,242.2,144.8z M198.4,144.8c0-3.4-2.8-6.1-6.2-6.1s-6.2,2.7-6.2,6.1
		c0,3.4,2.8,6.1,6.2,6.1S198.4,148.2,198.4,144.8z M206.7,144.8c0-7.9-6.5-14.3-14.5-14.3c-8,0-14.5,6.4-14.5,14.3
		c0,7.9,6.5,14.3,14.5,14.3C200.2,159.1,206.7,152.7,206.7,144.8z M162.9,144.8c0-3.4-2.8-6.1-6.2-6.1c-3.4,0-6.2,2.7-6.2,6.1
		c0,3.4,2.8,6.1,6.2,6.1C160.1,151,162.9,148.2,162.9,144.8z M171.2,144.8c0-7.9-6.5-14.3-14.5-14.3c-8,0-14.5,6.4-14.5,14.3
		c0,7.9,6.5,14.3,14.5,14.3C164.7,159.1,171.2,152.7,171.2,144.8z M110,47.3c0-3.4-2.8-6.1-6.2-6.1c-3.4,0-6.2,2.7-6.2,6.1
		c0,3.4,2.8,6.1,6.2,6.1C107.2,53.5,110,50.7,110,47.3z M118.2,47.3c0-7.9-6.5-14.3-14.5-14.3c-8,0-14.5,6.4-14.5,14.3
		c0,7.9,6.5,14.3,14.5,14.3C111.8,61.7,118.2,55.2,118.2,47.3z M74.4,47.3c0-3.4-2.8-6.1-6.2-6.1c-3.4,0-6.2,2.7-6.2,6.1
		c0,3.4,2.8,6.1,6.2,6.1C71.7,53.5,74.4,50.7,74.4,47.3z M82.7,47.3c0-7.9-6.5-14.3-14.5-14.3c-8,0-14.5,6.4-14.5,14.3
		c0,7.9,6.5,14.3,14.5,14.3C76.2,61.7,82.7,55.2,82.7,47.3z M38.9,47.3c0-3.4-2.8-6.1-6.2-6.1c-3.4,0-6.2,2.7-6.2,6.1
		c0,3.4,2.8,6.1,6.2,6.1C36.2,53.5,38.9,50.7,38.9,47.3z M47.2,47.3c0-7.9-6.5-14.3-14.5-14.3s-14.5,6.4-14.5,14.3
		c0,7.9,6.5,14.3,14.5,14.3S47.2,55.2,47.2,47.3z M127.7,14.8c0-3.4-2.8-6.1-6.2-6.1c-3.4,0-6.2,2.7-6.2,6.1s2.8,6.1,6.2,6.1
		C124.9,21,127.7,18.2,127.7,14.8z M136,14.8c0-7.9-6.5-14.3-14.5-14.3c-8,0-14.5,6.4-14.5,14.3s6.5,14.3,14.5,14.3
		C129.5,29.2,136,22.7,136,14.8z M92.2,14.8c0-3.4-2.8-6.1-6.2-6.1c-3.4,0-6.2,2.7-6.2,6.1S82.6,21,86,21
		C89.4,21,92.2,18.2,92.2,14.8z M100.5,14.8C100.5,6.9,94,0.5,86,0.5S71.5,6.9,71.5,14.8S78,29.2,86,29.2S100.5,22.7,100.5,14.8z
		 M56.7,14.8c0-3.4-2.8-6.1-6.2-6.1c-3.4,0-6.2,2.7-6.2,6.1s2.8,6.1,6.2,6.1C53.9,21,56.7,18.2,56.7,14.8z M65,14.8
		c0-7.9-6.5-14.3-14.5-14.3S36,6.9,36,14.8s6.5,14.3,14.5,14.3S65,22.7,65,14.8z M21.2,14.8c0-3.4-2.8-6.1-6.2-6.1s-6.2,2.7-6.2,6.1
		S11.6,21,15,21S21.2,18.2,21.2,14.8z M29.5,14.8C29.5,6.9,23,0.5,15,0.5C7,0.5,0.5,6.9,0.5,14.8S7,29.2,15,29.2
		C23,29.2,29.5,22.7,29.5,14.8z M110,112.3c0-3.4-2.8-6.1-6.2-6.1c-3.4,0-6.2,2.7-6.2,6.1c0,3.4,2.8,6.1,6.2,6.1
		C107.2,118.5,110,115.7,110,112.3z M118.2,112.3c0-7.9-6.5-14.3-14.5-14.3c-8,0-14.5,6.4-14.5,14.3c0,7.9,6.5,14.3,14.5,14.3
		C111.8,126.7,118.2,120.2,118.2,112.3z M74.4,112.3c0-3.4-2.8-6.1-6.2-6.1c-3.4,0-6.2,2.7-6.2,6.1c0,3.4,2.8,6.1,6.2,6.1
		C71.7,118.5,74.4,115.7,74.4,112.3z M82.7,112.3c0-7.9-6.5-14.3-14.5-14.3c-8,0-14.5,6.4-14.5,14.3c0,7.9,6.5,14.3,14.5,14.3
		C76.2,126.7,82.7,120.2,82.7,112.3z M38.9,112.3c0-3.4-2.8-6.1-6.2-6.1c-3.4,0-6.2,2.7-6.2,6.1c0,3.4,2.8,6.1,6.2,6.1
		C36.2,118.5,38.9,115.7,38.9,112.3z M47.2,112.3c0-7.9-6.5-14.3-14.5-14.3s-14.5,6.4-14.5,14.3c0,7.9,6.5,14.3,14.5,14.3
		S47.2,120.2,47.2,112.3z M127.7,79.8c0-3.4-2.8-6.1-6.2-6.1c-3.4,0-6.2,2.7-6.2,6.1c0,3.4,2.8,6.1,6.2,6.1
		C124.9,86,127.7,83.2,127.7,79.8z M136,79.8c0-7.9-6.5-14.3-14.5-14.3c-8,0-14.5,6.4-14.5,14.3s6.5,14.3,14.5,14.3
		C129.5,94.2,136,87.7,136,79.8z M92.2,79.8c0-3.4-2.8-6.1-6.2-6.1c-3.4,0-6.2,2.7-6.2,6.1c0,3.4,2.8,6.1,6.2,6.1
		C89.4,86,92.2,83.2,92.2,79.8z M100.5,79.8c0-7.9-6.5-14.3-14.5-14.3s-14.5,6.4-14.5,14.3S78,94.2,86,94.2S100.5,87.7,100.5,79.8z
		 M56.7,79.8c0-3.4-2.8-6.1-6.2-6.1c-3.4,0-6.2,2.7-6.2,6.1c0,3.4,2.8,6.1,6.2,6.1C53.9,86,56.7,83.2,56.7,79.8z M65,79.8
		c0-7.9-6.5-14.3-14.5-14.3S36,71.9,36,79.8s6.5,14.3,14.5,14.3S65,87.7,65,79.8z M21.2,79.8c0-3.4-2.8-6.1-6.2-6.1
		s-6.2,2.7-6.2,6.1c0,3.4,2.8,6.1,6.2,6.1S21.2,83.2,21.2,79.8z M29.5,79.8c0-7.9-6.5-14.3-14.5-14.3c-8,0-14.5,6.4-14.5,14.3
		S7,94.2,15,94.2C23,94.2,29.5,87.7,29.5,79.8z M110,177.3c0-3.4-2.8-6.1-6.2-6.1c-3.4,0-6.2,2.7-6.2,6.1s2.8,6.1,6.2,6.1
		C107.2,183.5,110,180.7,110,177.3z M118.2,177.3c0-7.9-6.5-14.3-14.5-14.3c-8,0-14.5,6.4-14.5,14.3c0,7.9,6.5,14.3,14.5,14.3
		C111.8,191.6,118.2,185.2,118.2,177.3z M74.4,177.3c0-3.4-2.8-6.1-6.2-6.1c-3.4,0-6.2,2.7-6.2,6.1s2.8,6.1,6.2,6.1
		C71.7,183.5,74.4,180.7,74.4,177.3z M82.7,177.3c0-7.9-6.5-14.3-14.5-14.3c-8,0-14.5,6.4-14.5,14.3c0,7.9,6.5,14.3,14.5,14.3
		C76.2,191.6,82.7,185.2,82.7,177.3z M38.9,177.3c0-3.4-2.8-6.1-6.2-6.1c-3.4,0-6.2,2.7-6.2,6.1s2.8,6.1,6.2,6.1
		C36.2,183.5,38.9,180.7,38.9,177.3z M47.2,177.3c0-7.9-6.5-14.3-14.5-14.3s-14.5,6.4-14.5,14.3c0,7.9,6.5,14.3,14.5,14.3
		S47.2,185.2,47.2,177.3z M127.7,144.8c0-3.4-2.8-6.1-6.2-6.1c-3.4,0-6.2,2.7-6.2,6.1c0,3.4,2.8,6.1,6.2,6.1
		C124.9,151,127.7,148.2,127.7,144.8z M136,144.8c0-7.9-6.5-14.3-14.5-14.3c-8,0-14.5,6.4-14.5,14.3c0,7.9,6.5,14.3,14.5,14.3
		C129.5,159.1,136,152.7,136,144.8z M92.2,144.8c0-3.4-2.8-6.1-6.2-6.1c-3.4,0-6.2,2.7-6.2,6.1c0,3.4,2.8,6.1,6.2,6.1
		C89.4,151,92.2,148.2,92.2,144.8z M100.5,144.8c0-7.9-6.5-14.3-14.5-14.3s-14.5,6.4-14.5,14.3c0,7.9,6.5,14.3,14.5,14.3
		S100.5,152.7,100.5,144.8z M56.7,144.8c0-3.4-2.8-6.1-6.2-6.1c-3.4,0-6.2,2.7-6.2,6.1c0,3.4,2.8,6.1,6.2,6.1
		C53.9,151,56.7,148.2,56.7,144.8z M65,144.8c0-7.9-6.5-14.3-14.5-14.3S36,136.9,36,144.8c0,7.9,6.5,14.3,14.5,14.3
		S65,152.7,65,144.8z M21.2,144.8c0-3.4-2.8-6.1-6.2-6.1s-6.2,2.7-6.2,6.1c0,3.4,2.8,6.1,6.2,6.1S21.2,148.2,21.2,144.8z
		 M29.5,144.8c0-7.9-6.5-14.3-14.5-14.3c-8,0-14.5,6.4-14.5,14.3c0,7.9,6.5,14.3,14.5,14.3C23,159.1,29.5,152.7,29.5,144.8z"/>
</g>
</svg>
